<svg width="204" height="23" viewBox="0 0 204 23" fill="none" xmlns="http://www.w3.org/2000/svg">
<path d="M9.35961 4.50174V0.0488281H18.3614V4.39733H25.0746C25.1282 5.19591 25.1734 5.87035 25.2213 6.62661L27.3095 6.78181V20.1913L25.2496 20.3437C25.1959 21.0238 25.1395 21.6982 25.0774 22.4488H2.6746C2.61534 21.7603 2.5589 21.0859 2.494 20.3381L0.419922 20.2054V6.78745L2.494 6.64635C2.54479 5.96628 2.59276 5.32573 2.65484 4.50174H9.35961ZM9.41322 13.574H18.3162L18.4686 15.6481H20.5653L20.7148 13.464H25.0633V11.3532H2.69153V13.5063H7.01745C7.08518 14.3077 7.14444 14.985 7.20088 15.6594H9.28342C9.33139 14.9426 9.37372 14.3021 9.42169 13.574H9.41322ZM11.7074 2.28658V4.35218H16.0249V2.28658H11.7074Z" fill="#242424" fill-opacity="0.5"/>
<path d="M65.6719 11.2525L62.4946 14.4298L59.3095 11.2447L62.4868 8.06738L65.6719 11.2525Z" fill="#242424" fill-opacity="0.5"/>
<path d="M101.436 18.809L103.148 18.6893V13.1662H97.6719V9.40897L99.4378 9.27981V3.79194L101.316 3.65575V0.0488281H106.919V3.65105L105.132 3.79899V7.39651L103.294 7.55854V9.30799H110.646V11.1725L108.908 11.3017V14.9203L107.056 15.0589C107.016 15.6154 106.976 16.179 106.931 16.8083L105.137 16.9398V20.5608L103.312 20.69C103.263 21.2676 103.214 21.8289 103.162 22.4488H101.429L101.436 18.809Z" fill="#242424" fill-opacity="0.5"/>
<path d="M149.008 11.2525L145.831 14.4298L142.646 11.2447L145.823 8.06738L149.008 11.2525Z" fill="#242424" fill-opacity="0.5"/>
<path d="M181.009 0.0488281H185.218C185.266 0.724347 185.315 1.36864 185.374 2.19175H192.021C192.081 3.00635 192.126 3.65065 192.189 4.46241H198.848C198.899 5.27416 198.938 5.91846 198.99 6.71035L201.115 6.84092V8.82774L199.001 8.98668C198.953 9.69058 198.907 10.3349 198.853 11.1012L196.73 11.2573V13.5053L198.853 13.6784C198.896 14.3795 198.933 15.0238 198.978 15.7759L201.127 15.9491C201.166 16.6558 201.206 17.3001 201.249 18.0466L203.392 18.2226V20.1782L201.271 20.3399C201.235 21.0013 201.195 21.6796 201.152 22.4488H199.143C199.103 21.7506 199.066 21.1063 199.024 20.3626L196.898 20.2009C196.849 19.5452 196.801 18.864 196.747 18.0863L194.627 17.9331C194.579 17.2689 194.528 16.5877 194.474 15.8213H192.203C192.161 16.4798 192.115 17.1582 192.064 17.9217L189.918 18.0693C189.879 18.7562 189.836 19.4374 189.788 20.1923H187.801C187.758 19.5339 187.713 18.8498 187.662 18.0863L185.49 17.9302V11.2715L183.22 11.1097V4.44538L181.023 4.29495L181.009 0.0488281Z" fill="#242424" fill-opacity="0.5"/>
</svg>
