<svg width="210" height="24" viewBox="0 0 210 24" fill="none" xmlns="http://www.w3.org/2000/svg">
<path d="M0.70752 23.2306V10.248L2.47476 10.1298V4.59894L4.36486 4.45955L4.49717 2.69467L6.25496 2.56945L6.38018 0.830566H13.7043C13.7397 1.36924 13.7752 1.90792 13.8177 2.56L15.5873 2.68286V6.19607H12.0434C12.0079 5.63141 11.9725 5.09273 11.9347 4.47609H8.14505L8.02929 6.21261L6.29276 6.33783V10.1416H19.3321V23.2258L0.70752 23.2306ZM11.9253 19.5803V15.8308H8.16868V19.5803H11.9253Z" fill="#242424" fill-opacity="0.5"/>
<path d="M57.6944 12.0345L54.517 15.2118L51.332 12.0267L54.5093 8.84937L57.6944 12.0345Z" fill="#242424" fill-opacity="0.5"/>
<path d="M98.634 5.28348V0.830566H107.636V5.17907H114.349C114.403 5.97766 114.448 6.65209 114.496 7.40835L116.584 7.56355V20.9731L114.524 21.1255C114.47 21.8055 114.414 22.4799 114.352 23.2306H91.949C91.8898 22.542 91.8333 21.8676 91.7684 21.1198L89.6943 20.9872V7.56919L91.7684 7.4281C91.8192 6.74803 91.8672 6.10747 91.9293 5.28348H98.634ZM98.6876 14.3558H107.591L107.743 16.4299H109.84L109.989 14.2457H114.338V12.135H91.9659V14.2881H96.2919C96.3596 15.0895 96.4189 15.7667 96.4753 16.4411H98.5578C98.6058 15.7244 98.6481 15.0838 98.6961 14.3558H98.6876ZM100.982 3.06832V5.13392H105.299V3.06832H100.982Z" fill="#242424" fill-opacity="0.5"/>
<path d="M154.947 12.0345L151.769 15.2118L148.584 12.0267L151.762 8.84937L154.947 12.0345Z" fill="#242424" fill-opacity="0.5"/>
<path d="M196.303 0.830566H199.938C199.982 1.40583 200.022 1.93883 200.074 2.61975H203.692C203.742 3.29597 203.782 3.82897 203.826 4.45354L205.587 4.59912C205.625 5.18142 205.658 5.71442 205.697 6.3249L207.512 6.48692V10.0864L209.309 10.2226V13.862L207.557 13.9959V17.6141L205.723 17.748C205.676 18.3185 205.629 18.8821 205.578 19.509L203.852 19.6193C203.8 20.204 203.749 20.7675 203.69 21.4343H200.09C200.041 22.0707 200.001 22.6083 199.954 23.2306H196.315C196.273 22.6929 196.233 22.1599 196.181 21.479H192.563C192.513 20.8027 192.473 20.2697 192.429 19.6452L190.668 19.4996C190.63 18.9173 190.597 18.3843 190.558 17.7738L188.743 17.6118V14.0123L186.946 13.8761V10.2367L188.7 10.1028V6.48457L190.532 6.35074C190.579 5.78017 190.626 5.21665 190.677 4.58973L192.403 4.47937C192.455 3.89237 192.506 3.32885 192.565 2.66436H196.165C196.214 2.02805 196.249 1.4974 196.303 0.830566ZM205.58 13.8855H201.981V10.1169H205.571V8.36297L203.807 8.22444C203.767 7.59283 203.735 7.05044 203.699 6.47518L201.931 6.35778C201.889 5.70738 201.854 5.18377 201.819 4.63904H199.961V8.19627H196.204V4.60616H194.441C194.392 5.22369 194.35 5.78017 194.303 6.36952L192.553 6.47752C192.511 7.10914 192.474 7.67266 192.436 8.24557L190.717 8.35828V10.2156H194.274V13.9724H190.684V15.7263L192.448 15.8649C192.488 16.4965 192.52 17.0389 192.556 17.6141L194.324 17.7315C194.366 18.3819 194.401 18.9055 194.436 19.4503H196.294V15.9024H200.051V19.4925H201.804C201.854 18.875 201.896 18.3185 201.943 17.7292L203.692 17.6212C203.735 16.9896 203.772 16.426 203.81 15.8531L205.571 15.7357L205.58 13.8855Z" fill="#242424" fill-opacity="0.5"/>
</svg>
