<svg width="216" height="23" viewBox="0 0 216 23" fill="none" xmlns="http://www.w3.org/2000/svg">
<path d="M1.87754 9.49781H0.0571289V3.87899H3.70029V0.158203H18.7527V3.79432H22.4876V9.49781H20.6813V5.78172H18.8986V9.46253H20.7143V11.3182H17.0029C16.9535 11.9791 16.9112 12.5412 16.8641 13.1739L15.1143 13.3056C15.072 13.8654 15.0273 14.4299 14.9779 15.0649L13.2468 15.1801V18.8233L14.9685 18.9338C15.0108 19.503 15.0508 20.0369 15.1002 20.6908L16.85 20.8201V22.5582H5.69945V20.8272L7.43989 20.7049C7.47987 20.1286 7.51515 19.5924 7.55984 18.9433L9.31909 18.8209V15.2013L7.5669 15.0672C7.53162 14.5192 7.49633 13.9571 7.454 13.3174L5.69474 13.1857C5.65241 12.6306 5.61243 12.0661 5.56304 11.3935H1.84461V9.47664H3.67913V5.80524H1.87754V9.49781Z" fill="#242424" fill-opacity="0.5"/>
<path d="M60.8501 11.3618L57.6728 14.5392L54.4877 11.3541L57.665 8.17676L60.8501 11.3618Z" fill="#242424" fill-opacity="0.5"/>
<path d="M126.712 0.158203V22.5582H92.8496V0.158203H126.712ZM118.176 3.01046H101.343C101.268 3.96004 101.208 4.76434 101.144 5.61116L98.5116 5.80603C98.4337 6.80521 98.3699 7.60597 98.3026 8.45279L95.7196 8.61578V14.0971L98.3309 14.2884C98.3982 15.238 98.4585 16.0884 98.5187 16.9281L101.165 17.1265L101.36 19.7378H118.166C118.229 18.7812 118.29 17.9344 118.346 17.1052L121 16.9104C121.06 15.9821 121.114 15.1778 121.167 14.3026L123.814 14.0581V8.61932L121.163 8.43508C121.096 7.45361 121.039 6.66349 120.983 5.78123L118.318 5.59698L118.176 3.01046Z" fill="#242424" fill-opacity="0.5"/>
<path d="M107.001 5.78125H112.496V16.9033H109.775V8.67249L107.001 8.41383V5.78125Z" fill="#242424" fill-opacity="0.5"/>
<path d="M165.075 11.3618L161.897 14.5392L158.712 11.3541L161.89 8.17676L165.075 11.3618Z" fill="#242424" fill-opacity="0.5"/>
<path d="M198.944 11.3065V9.54485L200.699 9.41314C200.741 8.85337 200.786 8.2889 200.835 7.65623L202.566 7.53628V5.77467L200.851 5.66883V3.88605L202.58 3.77551C202.622 3.21339 202.66 2.6795 202.709 2.01154L204.462 1.8963C204.504 1.32242 204.544 0.786175 204.591 0.158203H208.239L208.368 1.87513L210.125 2.01154C210.165 2.59012 210.203 3.12401 210.245 3.75199L212.007 3.89781V5.64766L210.252 5.78878V7.52217L212.007 7.64917C212.044 8.20188 212.08 8.76635 212.122 9.40138L213.858 9.53074V11.2971L212.164 11.4241V13.181L213.879 13.2868C213.926 13.8724 213.971 14.4369 214.02 15.0625L215.753 15.1707V18.8374H208.352V22.5582H204.572V18.9174H197.074V15.1966L198.836 15.0437C198.871 14.4628 198.904 13.9289 198.942 13.315L200.673 13.1786V11.4335L198.944 11.3065Z" fill="#242424" fill-opacity="0.5"/>
</svg>
