<svg width="221" height="24" viewBox="0 0 221 24" fill="none" xmlns="http://www.w3.org/2000/svg">
<path d="M27.4599 0.836882C27.5073 1.6423 27.5483 2.35927 27.5989 3.17732L29.933 3.34157V20.7133L27.6115 20.8743L27.4441 23.2306H2.49205C2.44151 22.501 2.38782 21.7461 2.32781 20.8901L0 20.7259V3.3542L2.3436 3.1868L2.511 0.830566L27.4599 0.836882ZM14.9776 13.3129H4.92093V18.3286H14.9776V13.3129ZM12.4255 10.7861V5.76096H7.41613V10.7672L12.4255 10.7861ZM17.4791 18.3002H25.0595V15.8934H17.4791V18.3002ZM17.4791 13.2466H25.0595V10.8398H17.4791V13.2466ZM25.0847 5.73254H17.5549V8.22143H25.0847V5.73254Z" fill="#242424" fill-opacity="0.5"/>
<path d="M68.2954 12.0345L65.1181 15.2118L61.933 12.0267L65.1104 8.84937L68.2954 12.0345Z" fill="#242424" fill-opacity="0.5"/>
<path d="M105.917 12.0529V0.830566H122.698V17.5782H121.007C120.964 17.0671 120.919 16.5042 120.865 15.873L119.137 15.727C119.087 15.1877 119.038 14.6554 118.979 13.9912L117.243 13.8452C117.196 13.2776 117.149 12.743 117.092 12.0529H105.917Z" fill="#242424" fill-opacity="0.5"/>
<path d="M104.018 17.6653H100.295V6.49475H103.889V13.8994H115.168C115.222 14.5918 115.264 15.1264 115.311 15.7458L117.035 15.8872V17.6394H109.683C109.626 18.3271 109.584 18.8594 109.534 19.4811L107.789 19.6295C107.744 20.1806 107.697 20.7435 107.645 21.3771L105.91 21.5066C105.863 22.0648 105.818 22.597 105.766 23.2306H104.018V17.6653Z" fill="#242424" fill-opacity="0.5"/>
<path d="M161.06 12.0345L157.883 15.2118L154.698 12.0267L157.875 8.84937L161.06 12.0345Z" fill="#242424" fill-opacity="0.5"/>
<path d="M195.317 23.2305V14.3583H199.664C199.732 13.5824 199.786 12.9424 199.854 12.1551L202.012 11.9739V7.63831H211V11.9569L213.243 12.1466C213.297 12.8404 213.348 13.4833 213.407 14.2677H217.737V23.2305H195.317ZM208.701 18.8156V14.4036H204.391V18.8156H208.701Z" fill="#242424" fill-opacity="0.5"/>
<path d="M193.061 9.64048V5.35021L195.145 5.19163C195.204 4.50348 195.258 3.86066 195.332 3.02809H199.681C199.747 2.19835 199.798 1.55552 199.854 0.830566H213.232C213.291 1.49888 213.348 2.14172 213.419 2.97428H217.771C217.834 3.80402 217.885 4.44685 217.938 5.17464L220.017 5.35021V9.64897H213.402V5.31623H199.809V9.64048H193.061Z" fill="#242424" fill-opacity="0.5"/>
</svg>
