<svg width="37" height="36" viewBox="0 0 37 36" fill="none" xmlns="http://www.w3.org/2000/svg">
<g clip-path="url(#clip0_130_493)">
<path fill-rule="evenodd" clip-rule="evenodd" d="M29 36H8C3.8585 36 0.5 32.6415 0.5 28.5V7.5C0.5 3.3585 3.8585 0 8 0H29C33.143 0 36.5 3.3585 36.5 7.5V28.5C36.5 32.6415 33.143 36 29 36ZM24.068 28.668L23.432 26.448L24.968 27.876L26.42 29.22L29 31.5V9.972C29 8.604 27.896 7.5 26.54 7.5H10.46C9.104 7.5 8 8.604 8 9.972V26.196C8 27.564 9.104 28.668 10.46 28.668H24.068ZM21.908 23.172C24.56 23.088 25.58 21.348 25.58 21.348C25.58 17.484 23.852 14.352 23.852 14.352C22.124 13.056 20.48 13.092 20.48 13.092L20.312 13.284C22.352 13.908 23.3 14.808 23.3 14.808C22.052 14.124 20.828 13.788 19.688 13.656C18.824 13.56 17.996 13.584 17.264 13.68L17.06 13.704C16.64 13.74 15.62 13.896 14.336 14.46L13.628 14.808C13.628 14.808 14.624 13.86 16.784 13.236L16.664 13.092C16.664 13.092 15.02 13.056 13.292 14.352C13.292 14.352 11.564 17.484 11.564 21.348C11.564 21.348 12.572 23.088 15.224 23.172L16.028 22.176C14.504 21.72 13.928 20.76 13.928 20.76L14.264 20.964L14.312 21L14.36 21.027L14.3735 21.033L14.42 21.06C14.72 21.228 15.02 21.36 15.296 21.468C15.788 21.66 16.376 21.852 17.06 21.984C17.96 22.152 19.016 22.212 20.168 21.996C20.732 21.9 21.308 21.732 21.908 21.48C22.328 21.324 22.796 21.096 23.288 20.772C23.288 20.772 22.688 21.756 21.116 22.2L21.908 23.172ZM16.328 17.568C15.644 17.568 15.104 18.168 15.104 18.9C15.104 19.632 15.656 20.232 16.328 20.232C17.012 20.232 17.552 19.632 17.552 18.9C17.564 18.168 17.012 17.568 16.328 17.568ZM20.708 17.568C20.024 17.568 19.484 18.168 19.484 18.9C19.484 19.632 20.036 20.232 20.708 20.232C21.392 20.232 21.932 19.632 21.932 18.9C21.932 18.168 21.392 17.568 20.708 17.568Z" fill="#343935"/>
</g>
<defs>
<clipPath id="clip0_130_493">
<rect width="36" height="36" fill="white" transform="translate(0.5)"/>
</clipPath>
</defs>
</svg>
