<svg width="37" height="36" viewBox="0 0 37 36" fill="none" xmlns="http://www.w3.org/2000/svg">
<g clip-path="url(#clip0_124_46)">
<path d="M23.3495 8.232C22.085 8.175 21.704 8.163 18.5 8.163C15.296 8.163 14.9165 8.175 13.652 8.232C10.397 8.3805 8.8805 9.9225 8.7335 13.1505C8.675 14.4165 8.6615 14.796 8.6615 18C8.6615 21.204 8.675 21.5835 8.732 22.8495C8.8805 26.0715 10.391 27.6195 13.6505 27.768C14.915 27.825 15.296 27.8385 18.5 27.8385C21.7055 27.8385 22.085 27.8265 23.3495 27.7695C26.6045 27.621 28.1195 26.076 28.268 22.851C28.325 21.585 28.337 21.2055 28.337 18.0015C28.337 14.7975 28.325 14.418 28.268 13.1535C28.1195 9.924 26.6015 8.3805 23.3495 8.232ZM18.5 24.162C15.0965 24.162 12.338 21.4035 12.338 18C12.338 14.5965 15.098 11.838 18.5 11.838C21.902 11.838 24.662 14.5965 24.662 18C24.662 21.4035 21.9035 24.162 18.5 24.162ZM24.9065 13.035C24.1115 13.035 23.4665 12.39 23.4665 11.595C23.4665 10.8 24.1115 10.155 24.9065 10.155C25.7015 10.155 26.3465 10.8 26.3465 11.595C26.3465 12.39 25.7015 13.035 24.9065 13.035ZM22.5005 18C22.5005 20.2095 20.7095 22.0005 18.5 22.0005C16.2905 22.0005 14.4995 20.2095 14.4995 18C14.4995 15.7905 16.2905 13.9995 18.5 13.9995C20.7095 13.9995 22.5005 15.7905 22.5005 18ZM29 0H8C3.8585 0 0.5 3.3585 0.5 7.5V28.5C0.5 32.6415 3.8585 36 8 36H29C33.143 36 36.5 32.6415 36.5 28.5V7.5C36.5 3.3585 33.143 0 29 0ZM30.428 22.947C30.23 27.3105 27.8015 29.7285 23.4485 29.928C22.1675 29.9865 21.7595 30 18.5 30C15.2405 30 14.834 29.9865 13.553 29.928C9.191 29.7285 6.773 27.306 6.572 22.947C6.5135 21.6675 6.5 21.2595 6.5 18C6.5 14.742 6.5135 14.3325 6.572 13.053C6.773 8.691 9.194 6.2715 13.553 6.0735C14.834 6.0135 15.2405 6 18.5 6C21.7595 6 22.1675 6.0135 23.4485 6.072C27.8105 6.2715 30.233 8.6985 30.428 13.0515C30.4865 14.3325 30.5 14.742 30.5 18C30.5 21.2595 30.4865 21.6675 30.428 22.947Z" fill="#46424D"/>
</g>
<defs>
<clipPath id="clip0_124_46">
<rect width="36" height="36" fill="white" transform="translate(0.5)"/>
</clipPath>
</defs>
</svg>
