<svg width="37" height="36" viewBox="0 0 37 36" fill="none" xmlns="http://www.w3.org/2000/svg">
<g clip-path="url(#clip0_130_479)">
<path d="M29 0H8C3.8585 0 0.5 3.3585 0.5 7.5V28.5C0.5 32.6415 3.8585 36 8 36H29C33.143 36 36.5 32.6415 36.5 28.5V7.5C36.5 3.3585 33.143 0 29 0ZM12.5 28.5H8V12H12.5V28.5ZM10.25 10.098C8.801 10.098 7.625 8.913 7.625 7.452C7.625 5.991 8.801 4.806 10.25 4.806C11.699 4.806 12.875 5.991 12.875 7.452C12.875 8.913 11.7005 10.098 10.25 10.098ZM30.5 28.5H26V20.094C26 15.042 20 15.4245 20 20.094V28.5H15.5V12H20V14.6475C22.094 10.7685 30.5 10.482 30.5 18.3615V28.5Z" fill="#46424D"/>
</g>
<defs>
<clipPath id="clip0_130_479">
<rect width="36" height="36" fill="white" transform="translate(0.5)"/>
</clipPath>
</defs>
</svg>
