<svg width="37" height="36" viewBox="0 0 37 36" fill="none" xmlns="http://www.w3.org/2000/svg">
<g clip-path="url(#clip0_130_487)">
<path fill-rule="evenodd" clip-rule="evenodd" d="M29 36H8C3.8585 36 0.5 32.6415 0.5 28.5V7.5C0.5 3.3585 3.8585 0 8 0H29C33.143 0 36.5 3.3585 36.5 7.5V28.5C36.5 32.6415 33.1445 35.9985 29 36ZM30.455 27.5265V27.123L28.5845 25.287C28.4195 25.161 28.337 24.954 28.3715 24.7485V11.2515C28.337 11.046 28.4195 10.839 28.5845 10.713L30.5 8.877V8.4735H23.867L19.139 20.268L13.76 8.4735H6.803V8.877L9.044 11.5755C9.263 11.775 9.3755 12.066 9.3455 12.36V22.968C9.4115 23.3505 9.29 23.742 9.0215 24.021L6.5 27.078V27.4815H13.649V27.078L11.1275 24.021C10.856 23.742 10.7285 23.3535 10.7795 22.968V13.794L17.054 27.4815H17.783L23.1725 13.794V24.7035C23.1725 24.9945 23.1725 25.0515 22.982 25.242L21.044 27.123V27.5265H30.455Z" fill="#343935"/>
</g>
<defs>
<clipPath id="clip0_130_487">
<rect width="36" height="36" fill="white" transform="translate(0.5)"/>
</clipPath>
</defs>
</svg>
