<svg width="37" height="36" viewBox="0 0 37 36" fill="none" xmlns="http://www.w3.org/2000/svg">
<g clip-path="url(#clip0_130_497)">
<path fill-rule="evenodd" clip-rule="evenodd" d="M29 36H8C3.8585 36 0.5 32.6415 0.5 28.5V7.5C0.5 3.3585 3.8585 0 8 0H29C33.143 0 36.5 3.3585 36.5 7.5V28.5C36.5 32.6415 33.143 36 29 36ZM24.884 28.278C25.2065 28.5075 25.6205 28.5645 25.991 28.4235C26.36 28.284 26.633 27.9675 26.7155 27.5835C27.584 23.5005 29.693 13.1625 30.4835 9.4485C30.542 9.168 30.443 8.877 30.224 8.6895C30.0035 8.5035 29.6975 8.4495 29.426 8.55C25.2335 10.101 12.32 14.946 7.0415 16.9005C6.707 17.0235 6.4895 17.346 6.5 17.7C6.512 18.0525 6.7505 18.36 7.0925 18.4635C9.4595 19.17 12.5675 20.1555 12.5675 20.1555C12.5675 20.1555 14.018 24.5415 14.7755 26.7705C14.87 27.051 15.0905 27.2715 15.3785 27.3465C15.668 27.4215 15.974 27.3435 16.19 27.1395C17.4065 25.992 19.286 24.2175 19.286 24.2175C19.286 24.2175 22.8575 26.8365 24.884 28.278ZM13.874 19.602L15.5525 25.14L15.926 21.633C15.926 21.633 22.412 15.783 26.111 12.447C26.219 12.3495 26.234 12.186 26.144 12.0705C26.054 11.955 25.8905 11.928 25.7675 12.006C21.482 14.7435 13.874 19.602 13.874 19.602Z" fill="#343935"/>
</g>
<defs>
<clipPath id="clip0_130_497">
<rect width="36" height="36" fill="white" transform="translate(0.5)"/>
</clipPath>
</defs>
</svg>
