<svg width="37" height="36" viewBox="0 0 37 36" fill="none" xmlns="http://www.w3.org/2000/svg">
<g clip-path="url(#clip0_124_44)">
<path d="M29 0H8C3.8585 0 0.5 3.3585 0.5 7.5V28.5C0.5 32.6415 3.8585 36 8 36H29C33.143 36 36.5 32.6415 36.5 28.5V7.5C36.5 3.3585 33.143 0 29 0ZM28.7915 13.8555C29.105 20.781 23.9405 28.503 14.7965 28.503C12.0155 28.503 9.428 27.6885 7.2485 26.2905C9.8615 26.598 12.4685 25.8735 14.5385 24.252C12.383 24.2115 10.565 22.788 9.9395 20.832C10.712 20.979 11.471 20.9355 12.1625 20.748C9.794 20.2725 8.1605 18.1395 8.213 15.858C8.876 16.227 9.6365 16.449 10.442 16.4745C8.2505 15.009 7.6295 12.114 8.918 9.9C11.3465 12.879 14.975 14.8395 19.067 15.045C18.3485 11.9655 20.687 9 23.8655 9C25.28 9 26.561 9.597 27.458 10.5555C28.58 10.335 29.6345 9.9255 30.587 9.3615C30.218 10.512 29.438 11.4765 28.4225 12.0855C29.4185 11.9655 30.368 11.7015 31.25 11.31C30.5915 12.294 29.756 13.161 28.7915 13.8555Z" fill="#46424D"/>
</g>
<defs>
<clipPath id="clip0_124_44">
<rect width="36" height="36" fill="white" transform="translate(0.5)"/>
</clipPath>
</defs>
</svg>
