<svg width="37" height="36" viewBox="0 0 37 36" fill="none" xmlns="http://www.w3.org/2000/svg">
<g clip-path="url(#clip0_130_483)">
<path d="M15.5 13.9995L23.4995 17.9925L15.5 22.0005V13.9995ZM36.5 7.5V28.5C36.5 32.6415 33.143 36 29 36H8C3.8585 36 0.5 32.6415 0.5 28.5V7.5C0.5 3.3585 3.8585 0 8 0H29C33.143 0 36.5 3.3585 36.5 7.5ZM30.5 18C30.47 11.8155 30.0155 9.45 26.1155 9.1845C22.511 8.9385 14.4845 8.94 10.886 9.1845C6.989 9.45 6.53 11.805 6.5 18C6.53 24.1845 6.9845 26.55 10.8845 26.8155C14.483 27.06 22.5095 27.0615 26.114 26.8155C30.011 26.55 30.47 24.195 30.5 18Z" fill="#343935"/>
</g>
<defs>
<clipPath id="clip0_130_483">
<rect width="36" height="36" fill="white" transform="translate(0.5)"/>
</clipPath>
</defs>
</svg>
