<svg width="137" height="61" viewBox="0 0 137 61" fill="none" xmlns="http://www.w3.org/2000/svg">
    <path fill-rule="evenodd" clip-rule="evenodd"
        d="M0 21.658V26.0905C0.0977542 26.0842 0.196366 26.081 0.295736 26.081C2.76301 26.081 4.76313 28.0571 4.76313 30.4948C4.76313 32.9324 2.76301 34.9086 0.295736 34.9086C0.196366 34.9086 0.0977542 34.9054 0 34.899V39.3319C0.0977542 39.3256 0.196366 39.3224 0.295736 39.3224C2.76301 39.3224 4.76313 41.2985 4.76313 43.7362C4.76313 46.1739 2.76301 48.15 0.295736 48.15C0.196366 48.15 0.0977542 48.1468 0 48.1405V54.5701C3.58854 54.5703 6.49756 57.4446 6.49756 60.9901V60.9902H33V61H104V60.9902H129.617C129.617 57.4446 132.526 54.5704 136.115 54.5703V48.1407C136.017 48.147 135.918 48.1502 135.819 48.1502C133.352 48.1502 131.352 46.1741 131.352 43.7364C131.352 41.2988 133.352 39.3227 135.819 39.3227C135.918 39.3227 136.017 39.3258 136.115 39.3321V34.8994C136.017 34.9057 135.918 34.9089 135.819 34.9089C133.352 34.9089 131.352 32.9328 131.352 30.4951C131.352 28.0575 133.352 26.0813 135.819 26.0813C135.918 26.0813 136.017 26.0845 136.115 26.0908V21.6581C136.017 21.6644 135.918 21.6676 135.819 21.6676C133.352 21.6676 131.352 19.6915 131.352 17.2538C131.352 14.8162 133.352 12.84 135.819 12.84C135.918 12.84 136.017 12.8432 136.115 12.8495V6.42007C132.526 6.41997 129.617 3.54567 129.617 0H104H102H34.1145H33H6.49756C6.49749 3.54547 3.5885 6.41966 0 6.41989V12.8495C0.0977542 12.8432 0.196366 12.84 0.295736 12.84C2.76301 12.84 4.76313 14.8161 4.76313 17.2538C4.76313 19.6914 2.76301 21.6676 0.295736 21.6676C0.196366 21.6676 0.0977542 21.6643 0 21.658Z"
        fill="#3C3C3C" />
</svg>