<svg width="204" height="61" viewBox="0 0 204 61" fill="none" xmlns="http://www.w3.org/2000/svg">
<mask id="mask0_2007_20" style="mask-type:alpha" maskUnits="userSpaceOnUse" x="0" y="0" width="204" height="61">
<rect width="204" height="61" fill="#D9D9D9"/>
</mask>
<g mask="url(#mask0_2007_20)">
<path fill-rule="evenodd" clip-rule="evenodd" d="M0 21.658V26.0905C0.0977542 26.0842 0.196366 26.081 0.295736 26.081C2.76301 26.081 4.76313 28.0571 4.76313 30.4948C4.76313 32.9324 2.76301 34.9086 0.295736 34.9086C0.196366 34.9086 0.0977542 34.9054 0 34.899V39.3319C0.0977542 39.3256 0.196366 39.3224 0.295736 39.3224C2.76301 39.3224 4.76313 41.2985 4.76313 43.7362C4.76313 46.1739 2.76301 48.15 0.295736 48.15C0.196366 48.15 0.0977542 48.1468 0 48.1405V54.5701C3.58854 54.5703 6.49756 57.4446 6.49756 60.9901V60.9902H33V61H171V60.9902H197.968C197.968 57.4446 200.877 54.5704 204.466 54.5703V48.1407C204.368 48.147 204.27 48.1502 204.171 48.1502C201.703 48.1502 199.703 46.1741 199.703 43.7364C199.703 41.2988 201.703 39.3227 204.171 39.3227C204.27 39.3227 204.368 39.3258 204.466 39.3321V34.8994C204.368 34.9057 204.27 34.9089 204.171 34.9089C201.703 34.9089 199.703 32.9328 199.703 30.4951C199.703 28.0575 201.703 26.0813 204.171 26.0813C204.27 26.0813 204.368 26.0845 204.466 26.0908V21.6581C204.368 21.6644 204.27 21.6676 204.171 21.6676C201.703 21.6676 199.703 19.6915 199.703 17.2538C199.703 14.8162 201.703 12.84 204.171 12.84C204.27 12.84 204.368 12.8432 204.466 12.8495V6.42007C200.877 6.41997 197.968 3.54567 197.968 0H171H170.352H34.1145H33H6.49756C6.49749 3.54547 3.5885 6.41966 0 6.41989V12.8495C0.0977542 12.8432 0.196366 12.84 0.295736 12.84C2.76301 12.84 4.76313 14.8161 4.76313 17.2538C4.76313 19.6914 2.76301 21.6676 0.295736 21.6676C0.196366 21.6676 0.0977542 21.6643 0 21.658Z" fill="#3C3C3C"/>
</g>
</svg>
