<svg width="397" height="127" viewBox="0 0 397 127" fill="none" xmlns="http://www.w3.org/2000/svg">
    <g filter="url(#filter0_dd_1_55)">
        <path fill-rule="evenodd" clip-rule="evenodd"
            d="M33.4 54.4211V58.9074C33.4977 58.901 33.5963 58.8978 33.6957 58.8978C36.163 58.8978 38.1631 60.8979 38.1631 63.3652C38.1631 65.8325 36.163 67.8326 33.6957 67.8326C33.5963 67.8326 33.4977 67.8293 33.4 67.823V72.3097C33.4977 72.3033 33.5963 72.3001 33.6957 72.3001C36.163 72.3001 38.1631 74.3002 38.1631 76.7675C38.1631 79.2348 36.163 81.2349 33.6957 81.2349C33.5963 81.2349 33.4977 81.2316 33.4 81.2252V87.7329C36.9885 87.7332 39.8975 90.6423 39.8975 94.2309V94.231H67.5145V32.5H39.8975C39.8975 36.0885 36.9885 38.9977 33.4 38.9979V45.5056C33.4977 45.4992 33.5963 45.496 33.6957 45.496C36.163 45.496 38.1631 47.4961 38.1631 49.9634C38.1631 52.4307 36.163 54.4308 33.6957 54.4308C33.5963 54.4308 33.4977 54.4275 33.4 54.4211Z"
            fill="#3C3C3C" />
        <rect width="262.237" height="61.988" transform="translate(67.5145 32.4999)" fill="#3C3C3C" />
        <path fill-rule="evenodd" clip-rule="evenodd"
            d="M363.866 38.9981C360.277 38.998 357.368 36.0888 357.368 32.5001V32.5H329.751V94.231H357.368C357.368 90.6424 360.277 87.7332 363.866 87.7331V81.2255C363.768 81.2318 363.67 81.2351 363.571 81.2351C361.103 81.2351 359.103 79.2349 359.103 76.7677C359.103 74.3004 361.103 72.3003 363.571 72.3003C363.67 72.3003 363.768 72.3035 363.866 72.3099V67.8233C363.768 67.8297 363.67 67.8329 363.571 67.8329C361.103 67.8329 359.103 65.8328 359.103 63.3655C359.103 60.8983 361.103 58.8981 363.571 58.8981C363.67 58.8981 363.768 58.9014 363.866 58.9078V54.4212C363.768 54.4276 363.67 54.4308 363.571 54.4308C361.103 54.4308 359.103 52.4307 359.103 49.9634C359.103 47.4962 361.103 45.496 363.571 45.496C363.67 45.496 363.768 45.4993 363.866 45.5056V38.9981Z"
            fill="#3C3C3C" />
    </g>
    <defs>
        <filter id="filter0_dd_1_55" x="0.909962" y="0.00990677" width="395.446" height="126.968"
            filterUnits="userSpaceOnUse" color-interpolation-filters="sRGB">
            <feFlood flood-opacity="0" result="BackgroundImageFix" />
            <feColorMatrix in="SourceAlpha" type="matrix" values="0 0 0 0 0 0 0 0 0 0 0 0 0 0 0 0 0 0 127 0"
                result="hardAlpha" />
            <feOffset />
            <feGaussianBlur stdDeviation="16.245" />
            <feComposite in2="hardAlpha" operator="out" />
            <feColorMatrix type="matrix" values="0 0 0 0 0 0 0 0 0 0 0 0 0 0 0 0 0 0 0.25 0" />
            <feBlend mode="normal" in2="BackgroundImageFix" result="effect1_dropShadow_1_55" />
            <feColorMatrix in="SourceAlpha" type="matrix" values="0 0 0 0 0 0 0 0 0 0 0 0 0 0 0 0 0 0 127 0"
                result="hardAlpha" />
            <feOffset dy="8.1225" />
            <feGaussianBlur stdDeviation="5.76697" />
            <feComposite in2="hardAlpha" operator="out" />
            <feColorMatrix type="matrix" values="0 0 0 0 0 0 0 0 0 0 0 0 0 0 0 0 0 0 0.15 0" />
            <feBlend mode="normal" in2="effect1_dropShadow_1_55" result="effect2_dropShadow_1_55" />
            <feBlend mode="normal" in="SourceGraphic" in2="effect2_dropShadow_1_55" result="shape" />
        </filter>
    </defs>
</svg>