<svg width="405" height="191" viewBox="0 0 405 191" fill="none" xmlns="http://www.w3.org/2000/svg">
<g filter="url(#filter0_d_130_476)">
<path d="M45.9602 100.814L195.909 23.165L354.208 79.2593" stroke="#343935" stroke-width="2" stroke-dasharray="6 6"/>
<rect x="18.4679" y="94.717" width="364.633" height="68.3166" rx="8.57915" transform="rotate(-4 18.4679 94.717)" fill="url(#paint0_linear_130_476)"/>
<path d="M61.9561 134.94L60.8361 118.922L55.8861 119.268L55.7086 116.73L68.3501 115.846L68.5276 118.384L63.5776 118.73L64.6977 134.748L61.9561 134.94ZM78.0578 134.069C76.9071 134.149 75.8938 134.008 75.0181 133.644C74.1581 133.262 73.4712 132.68 72.9575 131.9C72.4595 131.102 72.1721 130.152 72.0951 129.052L71.52 120.828C71.4419 119.711 71.5945 118.731 71.9777 117.888C72.3778 117.044 72.9777 116.381 73.7773 115.9C74.5927 115.401 75.5758 115.111 76.7265 115.03C77.8773 114.95 78.8827 115.101 79.7427 115.483C80.6184 115.847 81.3047 116.419 81.8015 117.201C82.3152 117.981 82.6106 118.921 82.6875 120.021L83.2644 128.271C83.3413 129.371 83.1803 130.352 82.7814 131.213C82.3982 132.056 81.7989 132.727 80.9835 133.227C80.1838 133.708 79.2086 133.988 78.0578 134.069ZM77.8874 131.632C78.8182 131.567 79.5028 131.264 79.9411 130.723C80.3952 130.164 80.5891 129.411 80.5228 128.463L79.9477 120.238C79.8803 119.274 79.5834 118.555 79.0571 118.081C78.5478 117.607 77.8277 117.402 76.897 117.467C75.9831 117.531 75.2986 117.834 74.8433 118.376C74.388 118.918 74.1941 119.671 74.2616 120.636L74.8367 128.861C74.9029 129.808 75.1998 130.527 75.7273 131.018C76.2535 131.491 76.9736 131.696 77.8874 131.632ZM102.009 132.139L100.713 113.608L106.171 113.227C107.931 113.103 109.339 113.43 110.397 114.206C111.455 114.983 112.036 116.116 112.14 117.605C112.199 118.451 112.064 119.2 111.736 119.852C111.423 120.486 110.957 120.995 110.337 121.379C109.718 121.762 108.977 121.984 108.114 122.044L108.096 121.79C109.026 121.708 109.859 121.829 110.596 122.151C111.331 122.457 111.927 122.951 112.383 123.633C112.839 124.316 113.101 125.148 113.17 126.129C113.243 127.178 113.07 128.117 112.652 128.946C112.25 129.756 111.632 130.403 110.798 130.887C109.982 131.369 108.99 131.651 107.822 131.732L102.009 132.139ZM104.509 129.592L107.428 129.388C108.41 129.319 109.17 129.002 109.709 128.437C110.247 127.873 110.484 127.125 110.419 126.194C110.353 125.246 110.012 124.505 109.396 123.97C108.781 123.435 107.982 123.201 107.001 123.27L104.081 123.474L104.509 129.592ZM103.922 121.189L106.688 120.996C107.602 120.932 108.304 120.636 108.795 120.109C109.285 119.582 109.501 118.903 109.443 118.074C109.385 117.245 109.077 116.611 108.52 116.174C107.961 115.72 107.233 115.525 106.336 115.587L103.543 115.783L103.922 121.189ZM116.95 131.094L115.655 112.563L126.545 111.802L126.715 114.239L118.516 114.812L118.883 120.067L126.194 119.556L126.363 121.967L119.052 122.478L119.471 128.469L127.67 127.896L127.84 130.333L116.95 131.094ZM145.082 129.127L148.508 110.266L152.113 110.014L158.13 128.215L155.363 128.408L153.918 123.79L148.663 124.157L147.874 128.932L145.082 129.127ZM149.013 121.863L153.227 121.568L151.583 116.301C151.297 115.368 151.053 114.561 150.852 113.877C150.667 113.176 150.54 112.7 150.472 112.45C150.439 112.707 150.379 113.196 150.294 113.916C150.207 114.62 150.077 115.445 149.906 116.392L149.013 121.863ZM160.76 128.031L159.464 109.5L162.916 109.258L169.401 124.289C169.333 123.8 169.25 123.22 169.151 122.546C169.053 121.873 168.962 121.173 168.877 120.448C168.809 119.722 168.755 119.062 168.713 118.47L168.044 108.9L170.583 108.722L171.878 127.253L168.426 127.495L161.967 112.462C162.032 112.9 162.104 113.448 162.184 114.105C162.281 114.762 162.363 115.445 162.429 116.154C162.513 116.863 162.576 117.522 162.619 118.131L163.298 127.853L160.76 128.031ZM175.473 127.002L174.177 108.471L177.63 108.23L184.114 123.26C184.046 122.772 183.963 122.191 183.865 121.517C183.767 120.844 183.675 120.145 183.59 119.419C183.523 118.693 183.468 118.033 183.427 117.441L182.757 107.871L185.296 107.694L186.592 126.224L183.139 126.466L176.68 111.434C176.745 111.871 176.817 112.419 176.897 113.076C176.994 113.733 177.076 114.416 177.143 115.126C177.226 115.834 177.289 116.493 177.332 117.102L178.012 126.824L175.473 127.002ZM195.763 125.838C194.613 125.919 193.599 125.777 192.724 125.413C191.864 125.031 191.177 124.45 190.663 123.669C190.165 122.871 189.877 121.922 189.801 120.822L189.225 112.597C189.147 111.48 189.3 110.5 189.683 109.657C190.083 108.813 190.683 108.15 191.483 107.669C192.298 107.17 193.281 106.88 194.432 106.8C195.583 106.719 196.588 106.87 197.448 107.252C198.324 107.616 199.01 108.189 199.507 108.97C200.021 109.75 200.316 110.691 200.393 111.791L200.97 120.041C201.047 121.141 200.886 122.121 200.487 122.982C200.104 123.825 199.504 124.497 198.689 124.996C197.889 125.477 196.914 125.758 195.763 125.838ZM195.593 123.401C196.524 123.336 197.208 123.033 197.647 122.492C198.101 121.933 198.295 121.18 198.228 120.232L197.653 112.008C197.586 111.043 197.289 110.324 196.763 109.851C196.253 109.376 195.533 109.171 194.602 109.237C193.689 109.3 193.004 109.603 192.549 110.145C192.093 110.687 191.9 111.441 191.967 112.405L192.542 120.63C192.608 121.578 192.905 122.297 193.433 122.787C193.959 123.26 194.679 123.465 195.593 123.401ZM210.476 124.809C208.7 124.933 207.295 124.547 206.263 123.65C205.23 122.736 204.655 121.441 204.537 119.766L203.604 106.413L206.345 106.222L207.279 119.574C207.344 120.505 207.624 121.225 208.119 121.734C208.63 122.243 209.36 122.464 210.308 122.398C211.239 122.333 211.922 122.013 212.358 121.438C212.794 120.863 212.979 120.111 212.914 119.18L211.981 105.828L214.722 105.636L215.656 118.988C215.773 120.664 215.384 122.026 214.488 123.075C213.59 124.107 212.253 124.685 210.476 124.809ZM219.613 123.915L218.317 105.384L221.769 105.143L228.254 120.173C228.185 119.685 228.102 119.104 228.004 118.431C227.906 117.757 227.815 117.058 227.73 116.333C227.662 115.606 227.607 114.947 227.566 114.355L226.897 104.785L229.435 104.607L230.731 123.138L227.279 123.379L220.82 108.347C220.884 108.785 220.957 109.332 221.037 109.99C221.134 110.646 221.215 111.329 221.282 112.039C221.366 112.747 221.429 113.406 221.471 114.015L222.151 123.738L219.613 123.915ZM240.004 122.744C238.854 122.825 237.832 122.684 236.939 122.321C236.062 121.94 235.359 121.36 234.828 120.581C234.313 119.784 234.017 118.835 233.94 117.735L233.365 109.51C233.287 108.394 233.448 107.413 233.848 106.569C234.265 105.723 234.882 105.059 235.698 104.577C236.531 104.077 237.522 103.786 238.673 103.706C239.824 103.625 240.838 103.776 241.715 104.156C242.592 104.537 243.287 105.118 243.801 105.898C244.33 106.661 244.634 107.6 244.712 108.717L241.97 108.909C241.903 107.944 241.598 107.226 241.054 106.754C240.511 106.281 239.774 106.078 238.843 106.143C237.913 106.208 237.203 106.513 236.714 107.057C236.241 107.6 236.038 108.346 236.105 109.293L236.682 117.543C236.748 118.491 237.053 119.21 237.598 119.699C238.158 120.17 238.903 120.373 239.834 120.308C240.765 120.242 241.466 119.938 241.938 119.395C242.409 118.835 242.612 118.081 242.546 117.133L245.287 116.942C245.364 118.042 245.194 119.014 244.777 119.86C244.377 120.704 243.769 121.376 242.954 121.875C242.138 122.374 241.155 122.664 240.004 122.744ZM249.369 121.835L248.073 103.304L258.963 102.542L259.134 104.979L250.934 105.552L251.302 110.807L258.613 110.296L258.781 112.707L251.47 113.219L251.889 119.209L260.089 118.636L260.259 121.073L249.369 121.835ZM263.803 120.825L262.507 102.294L267.686 101.932C268.904 101.847 269.978 102.01 270.908 102.421C271.837 102.815 272.577 103.418 273.127 104.23C273.694 105.041 274.017 106.022 274.098 107.172L274.6 114.356C274.679 115.49 274.495 116.506 274.048 117.405C273.617 118.302 272.97 119.019 272.107 119.556C271.242 120.075 270.2 120.378 268.981 120.463L263.803 120.825ZM266.371 118.146L268.807 117.975C269.823 117.904 270.599 117.57 271.135 116.971C271.687 116.354 271.928 115.546 271.858 114.548L271.356 107.364C271.287 106.383 270.937 105.633 270.306 105.116C269.69 104.581 268.875 104.349 267.86 104.42L265.423 104.59L266.371 118.146ZM298.832 118.631C297.579 118.718 296.491 118.59 295.565 118.247C294.639 117.887 293.903 117.343 293.359 116.616C292.814 115.872 292.504 114.966 292.43 113.9L295.146 113.71C295.205 114.556 295.548 115.204 296.175 115.654C296.8 116.086 297.637 116.266 298.687 116.192C299.668 116.123 300.422 115.833 300.947 115.32C301.472 114.807 301.706 114.136 301.648 113.307C301.599 112.613 301.363 112.026 300.938 111.545C300.53 111.063 299.964 110.754 299.241 110.618L296.857 110.096C295.476 109.801 294.381 109.215 293.571 108.336C292.777 107.439 292.335 106.339 292.244 105.036C292.173 104.021 292.339 103.116 292.743 102.323C293.146 101.529 293.756 100.892 294.573 100.409C295.39 99.927 296.373 99.6457 297.524 99.5652C299.216 99.4468 300.602 99.8091 301.681 100.652C302.778 101.494 303.388 102.684 303.513 104.223L300.771 104.414C300.714 103.602 300.408 102.986 299.851 102.566C299.31 102.127 298.574 101.941 297.644 102.006C296.747 102.068 296.06 102.337 295.583 102.813C295.105 103.272 294.893 103.89 294.947 104.669C294.996 105.362 295.224 105.95 295.632 106.432C296.057 106.912 296.631 107.229 297.356 107.383L299.767 107.928C301.147 108.206 302.234 108.793 303.028 109.69C303.822 110.587 304.265 111.695 304.357 113.015C304.429 114.047 304.248 114.978 303.813 115.808C303.376 116.621 302.733 117.278 301.884 117.78C301.034 118.264 300.016 118.548 298.832 118.631ZM313.469 117.607C312.318 117.688 311.305 117.546 310.429 117.182C309.569 116.8 308.882 116.219 308.368 115.439C307.87 114.64 307.583 113.691 307.506 112.591L306.931 104.366C306.853 103.249 307.005 102.269 307.389 101.426C307.789 100.582 308.389 99.9193 309.188 99.4383C310.004 98.9391 310.987 98.6493 312.137 98.5688C313.288 98.4884 314.294 98.6391 315.154 99.0211C316.029 99.3851 316.716 99.9578 317.212 100.739C317.726 101.52 318.021 102.46 318.098 103.56L318.675 111.81C318.752 112.91 318.591 113.89 318.192 114.752C317.809 115.595 317.21 116.266 316.394 116.765C315.595 117.246 314.619 117.527 313.469 117.607ZM313.298 115.17C314.229 115.105 314.914 114.802 315.352 114.262C315.806 113.703 316 112.949 315.934 112.002L315.359 103.777C315.291 102.812 314.994 102.093 314.468 101.62C313.959 101.145 313.239 100.941 312.308 101.006C311.394 101.07 310.709 101.373 310.254 101.915C309.799 102.457 309.605 103.21 309.672 104.175L310.248 112.399C310.314 113.347 310.611 114.066 311.138 114.556C311.664 115.03 312.384 115.234 313.298 115.17ZM328.182 116.578C327.031 116.659 326.018 116.517 325.142 116.153C324.282 115.771 323.595 115.19 323.082 114.41C322.584 113.611 322.296 112.662 322.219 111.562L321.644 103.337C321.566 102.221 321.719 101.241 322.102 100.397C322.502 99.5532 323.102 98.8905 323.901 98.4094C324.717 97.9103 325.7 97.6205 326.851 97.54C328.001 97.4595 329.007 97.6103 329.867 97.9923C330.742 98.3562 331.429 98.9289 331.926 99.7105C332.439 100.491 332.735 101.431 332.812 102.531L333.388 110.781C333.465 111.881 333.304 112.862 332.905 113.723C332.522 114.566 331.923 115.237 331.108 115.736C330.308 116.217 329.333 116.498 328.182 116.578ZM328.011 114.142C328.942 114.076 329.627 113.773 330.065 113.233C330.519 112.674 330.713 111.92 330.647 110.973L330.072 102.748C330.004 101.783 329.707 101.064 329.181 100.591C328.672 100.117 327.952 99.9118 327.021 99.9769C326.107 100.041 325.423 100.344 324.967 100.886C324.512 101.428 324.318 102.181 324.386 103.146L324.961 111.37C325.027 112.318 325.324 113.037 325.851 113.527C326.378 114.001 327.098 114.205 328.011 114.142ZM337.318 115.685L336.022 97.1537L339.475 96.9123L345.959 111.943C345.891 111.454 345.808 110.873 345.71 110.2C345.611 109.527 345.52 108.827 345.435 108.102C345.368 107.375 345.313 106.716 345.272 106.124L344.602 96.5537L347.141 96.3762L348.437 114.907L344.984 115.148L338.525 100.116C338.59 100.554 338.662 101.102 338.742 101.759C338.839 102.416 338.921 103.099 338.987 103.808C339.071 104.517 339.134 105.175 339.177 105.785L339.857 115.507L337.318 115.685Z" fill="white"/>
<circle opacity="0.2" cx="195.979" cy="24.1624" r="11" transform="rotate(-4 195.979 24.1624)" fill="#343935"/>
<circle cx="195.979" cy="24.1625" r="6" transform="rotate(-4 195.979 24.1625)" fill="#343935"/>
</g>
<defs>
<filter id="filter0_d_130_476" x="0.467896" y="5.16187" width="404.51" height="185.705" filterUnits="userSpaceOnUse" color-interpolation-filters="sRGB">
<feFlood flood-opacity="0" result="BackgroundImageFix"/>
<feColorMatrix in="SourceAlpha" type="matrix" values="0 0 0 0 0 0 0 0 0 0 0 0 0 0 0 0 0 0 127 0" result="hardAlpha"/>
<feOffset dy="10"/>
<feGaussianBlur stdDeviation="9"/>
<feComposite in2="hardAlpha" operator="out"/>
<feColorMatrix type="matrix" values="0 0 0 0 0 0 0 0 0 0 0 0 0 0 0 0 0 0 0.25 0"/>
<feBlend mode="normal" in2="BackgroundImageFix" result="effect1_dropShadow_130_476"/>
<feBlend mode="normal" in="SourceGraphic" in2="effect1_dropShadow_130_476" result="shape"/>
</filter>
<linearGradient id="paint0_linear_130_476" x1="18.4679" y1="94.717" x2="383.468" y2="162.717" gradientUnits="userSpaceOnUse">
<stop stop-color="#343935"/>
<stop offset="0.159602" stop-color="#525D54"/>
<stop offset="0.526939" stop-color="#3E4740"/>
<stop offset="0.811809" stop-color="#59665B"/>
<stop offset="1" stop-color="#343935"/>
</linearGradient>
</defs>
</svg>
