<svg width="250" height="70" viewBox="0 0 250 70" fill="none" xmlns="http://www.w3.org/2000/svg">
<g clip-path="url(#clip0_43_658)">
<path fill-rule="evenodd" clip-rule="evenodd" d="M7.32456 0.439575H0.666504V54.2056H7.32456V0.439575ZM88.5914 14.3613C81.82 14.3613 76.5424 17.8032 73.7542 22.4252C71.5634 26.0638 70.7667 30.1941 70.7667 34.8162C70.7667 40.3231 72.3601 45.4369 75.6461 49.174C78.6336 52.7142 83.1145 54.9759 88.691 54.9759C92.3756 54.9759 95.8609 53.8943 98.6492 52.0257C101.836 49.8621 104.126 46.3219 104.723 42.4867H98.251C97.7528 44.5518 97.0558 45.6338 95.9606 46.7154C94.3672 48.387 91.7782 49.2721 88.691 49.2721C85.7035 49.2721 83.3138 48.289 81.5211 46.5189C79.1314 44.1583 77.7373 40.3231 77.7373 36.783H105.52L105.62 32.8494C105.719 27.6373 103.828 22.6219 100.641 19.18C97.6532 16.2298 93.6701 14.3613 88.5914 14.3613ZM77.8354 31.2759C78.0342 25.5721 81.5196 19.8684 88.5898 19.8684C92.0751 19.8684 94.6645 21.2451 96.3572 23.4086C97.9506 25.4738 98.7472 28.424 98.7472 31.2759H77.8354ZM128.255 14.7539C123.898 14.7539 118.846 16.9119 116.568 20.7375L115.38 15.7348H110.329V69.2935H116.866V49.773C118.945 53.3046 123.996 55.2662 128.156 55.2662C132.712 55.2662 136.277 53.6969 138.852 51.3426C142.814 47.6149 144.795 41.5332 144.795 34.8629C144.795 28.4869 142.913 22.6013 139.149 18.8738C136.772 16.3233 133.009 14.7539 128.255 14.7539ZM127.168 49.8757C124.296 49.8757 122.415 48.6984 120.83 47.3253C117.562 44.4806 116.472 39.8701 116.472 35.0636C116.472 30.257 117.562 25.5485 120.83 22.8019C122.415 21.4286 124.296 20.2515 127.168 20.2515C135.884 20.2515 138.161 28.0009 138.161 35.0636C138.161 42.1263 135.884 49.8757 127.168 49.8757ZM152.482 22.4252C155.27 17.8032 160.548 14.3613 167.32 14.3613C172.398 14.3613 176.382 16.2298 179.369 19.18C182.556 22.6219 184.447 27.6373 184.348 32.8494L184.248 36.783H156.465C156.465 40.3231 157.859 44.1583 160.25 46.5189C162.042 48.289 164.432 49.2721 167.419 49.2721C170.506 49.2721 173.095 48.387 174.689 46.7154C175.784 45.6338 176.481 44.5518 176.979 42.4867H183.452C182.854 46.3219 180.564 49.8621 177.377 52.0257C174.589 53.8943 171.104 54.9759 167.419 54.9759C161.843 54.9759 157.362 52.7142 154.374 49.174C151.088 45.4369 149.495 40.3231 149.495 34.8162C149.495 30.1941 150.291 26.0638 152.482 22.4252ZM167.317 19.8684C160.247 19.8684 156.762 25.5721 156.563 31.2759H177.475C177.475 28.424 176.678 25.4738 175.085 23.4086C173.392 21.2451 170.803 19.8684 167.317 19.8684ZM206.481 14.3628C199.71 14.3628 194.432 17.8047 191.644 22.4267C189.453 26.0653 188.656 30.1956 188.656 34.8176C188.656 40.3247 190.25 45.4384 193.536 49.1756C196.523 52.7158 201.004 54.9774 206.581 54.9774C210.265 54.9774 213.751 53.8958 216.539 52.0273C219.726 49.8637 222.016 46.3235 222.613 42.4883H216.141C215.642 44.5534 214.945 45.635 213.85 46.717C212.257 48.3886 209.668 49.2736 206.581 49.2736C203.594 49.2736 201.203 48.2905 199.411 46.52C197.021 44.1599 195.627 40.3247 195.627 36.7845H223.41L223.509 32.8508C223.609 27.6388 221.717 22.6234 218.53 19.1815C215.543 16.2312 211.56 14.3628 206.481 14.3628ZM195.725 31.2758C195.925 25.5721 199.41 19.8683 206.48 19.8683C209.966 19.8683 212.555 21.2451 214.248 23.4086C215.841 25.4737 216.637 28.424 216.637 31.2758H195.725ZM249.757 20.4459L248.268 15.7215L234.47 20.5443L233.278 15.5247H228.216V54.2052H234.768V26.745L249.757 20.4459ZM13.9826 15.5247H20.6406V54.2052H13.9826V15.5247ZM21.4245 0.439575H13.9831V7.78889H21.4245V0.439575Z" fill="white"/>
<path fill-rule="evenodd" clip-rule="evenodd" d="M35.0936 14.6155H26.9932V22.716H35.0936V14.6155ZM51.2945 14.6155H43.194V22.716H51.2945V14.6155ZM51.2945 47.0175H43.194V55.118H51.2945V47.0175ZM59.395 14.6155H67.4955V22.716H59.395V14.6155ZM51.2945 30.8165H59.395V38.917H51.2945V30.8165ZM43.194 30.8165H35.0936V38.917H43.194V30.8165Z" fill="url(#paint0_linear_43_658)"/>
</g>
<defs>
<linearGradient id="paint0_linear_43_658" x1="26.9937" y1="34.8446" x2="67.4955" y2="34.8448" gradientUnits="userSpaceOnUse">
<stop stop-color="#00A55F"/>
<stop offset="1" stop-color="#4CF1AC"/>
</linearGradient>
<clipPath id="clip0_43_658">
<rect width="249.09" height="68.8889" fill="white" transform="translate(0.666504 0.439575)"/>
</clipPath>
</defs>
</svg>
