<svg width="210" height="73" viewBox="0 0 210 73" fill="none" xmlns="http://www.w3.org/2000/svg">
<path d="M81.4837 47.175C87.3782 47.175 91.5311 44.0051 91.5311 38.8166C91.5311 33.152 86.864 31.6857 82.4794 30.308C78.2866 29.0408 77.2167 28.1356 77.2167 26.4266C77.2167 24.8426 78.5636 23.6532 80.8573 23.6532C83.667 23.6532 85.1696 25.1195 86.158 27.2195L90.7472 24.5638C88.888 20.6733 85.3995 18.3362 80.8501 18.3362C76.1033 18.3362 71.7513 21.3468 71.7513 26.5751C71.7513 31.845 75.8662 33.6354 80.0988 34.8556C84.2137 36.0432 86.0729 36.8361 86.0729 38.8963C86.0729 40.4405 84.9252 41.8272 81.6412 41.8272C78.2015 41.8272 76.2608 40.1635 75.2724 37.5874L70.6035 40.321C72.1061 44.4414 75.8264 47.175 81.4837 47.175Z" fill="white"/>
<path d="M104.39 26.2583C101.493 26.2583 99.4059 27.3282 97.9812 29.1549V26.8141H92.8706V54.5431H97.974V44.2839C99.3987 46.1051 101.495 47.1805 104.383 47.1805C109.683 47.1805 114.035 42.6238 114.035 36.7221C114.035 30.8204 109.691 26.2583 104.39 26.2583ZM103.441 42.3034C100.315 42.3034 97.9812 40.0441 97.9812 36.7167C97.9812 33.3893 100.315 31.1317 103.441 31.1317C106.606 31.1317 108.939 33.3893 108.939 36.7167C108.939 40.0441 106.606 42.3034 103.441 42.3034Z" fill="white"/>
<path d="M126.662 26.2586C124.012 26.2586 121.955 27.2489 120.768 29.0321V18.8942H115.665V46.6214H120.768V35.9259C120.768 32.4862 122.627 31.0126 125.113 31.0126C127.406 31.0126 129.029 32.3993 129.029 35.0931V46.6214H134.146V34.4595C134.146 29.1986 130.855 26.2586 126.662 26.2586Z" fill="white"/>
<path d="M140.832 38.8167H155.746C155.875 38.1241 155.942 37.4212 155.945 36.7167C155.945 30.8946 151.79 26.2583 145.936 26.2583C139.724 26.2583 135.492 30.8149 135.492 36.7167C135.492 42.6184 139.684 47.175 146.33 47.175C150.132 47.175 153.095 45.6308 154.955 42.937L150.842 40.56C149.971 41.7078 148.389 42.5405 146.41 42.5405C143.72 42.5405 141.544 41.4308 140.832 38.8167ZM140.753 34.8556C141.346 32.3211 143.206 30.8548 145.936 30.8548C148.072 30.8548 150.208 32.0025 150.842 34.8556H140.753Z" fill="white"/>
<path d="M162.632 30.2215V26.8144H157.529V46.6214H162.632V37.1533C162.632 32.9895 165.996 31.8056 168.646 32.1224V26.418C166.153 26.418 163.655 27.5277 162.632 30.2215Z" fill="white"/>
<path d="M179.429 47.175C185.244 47.175 189.912 42.6184 189.912 36.7167C189.912 30.8149 185.244 26.2583 179.429 26.2583C173.614 26.2583 168.985 30.8149 168.985 36.7167C168.985 42.6184 173.612 47.175 179.429 47.175ZM179.429 42.1839C176.422 42.1839 174.088 39.9264 174.088 36.7167C174.088 33.5069 176.422 31.2494 179.429 31.2494C182.474 31.2494 184.809 33.5087 184.809 36.7167C184.809 39.9246 182.483 42.1839 179.429 42.1839Z" fill="white"/>
<path d="M202.523 26.2583C199.873 26.2583 197.816 27.2486 196.627 29.0318V26.8141H191.523V46.6211H196.627V35.9255C196.627 32.4859 198.488 31.0123 200.972 31.0123C203.267 31.0123 204.889 32.399 204.889 35.0928V46.6211H210V34.4592C210 29.1983 206.716 26.2583 202.523 26.2583Z" fill="white"/>
<path d="M46.229 1.27736V15.217C46.2287 15.5785 46.1353 15.9338 45.9577 16.2487C45.7801 16.5636 45.5244 16.8274 45.2152 17.0147L45.1283 17.0654L41.8697 18.9427L22.9009 29.8518L20.5981 31.1752C20.5592 31.1924 20.5221 31.2136 20.4877 31.2386C20.3443 31.3347 20.2268 31.4647 20.1455 31.6171C20.0643 31.7694 20.0218 31.9394 20.0218 32.1121C20.0218 32.2847 20.0643 32.4547 20.1455 32.607C20.2268 32.7594 20.3443 32.8894 20.4877 32.9855L20.5746 33.0362L23.1724 34.5424L32.0431 39.6476L32.2006 39.7399C32.3395 39.8361 32.453 39.9644 32.5315 40.114C32.6099 40.2636 32.6508 40.43 32.6508 40.599C32.6508 40.7679 32.6099 40.9343 32.5315 41.0839C32.453 41.2335 32.3395 41.3619 32.2006 41.458L32.0467 41.5449L15.8387 50.8826L15.7482 50.9351C15.4414 51.1034 15.097 51.1912 14.7471 51.1904C14.4338 51.1893 14.1247 51.1188 13.8419 50.984L13.7514 50.9369L13.6138 50.8555L4.21448 45.4516L1.1025 43.6612C1.07354 43.6467 1.04457 43.6286 1.01379 43.6105C0.713228 43.4271 0.464082 43.1705 0.289657 42.8646C0.100221 42.5478 0.000125802 42.1856 1.85516e-06 41.8164V27.2703C-0.000473138 26.9138 0.0902722 26.5632 0.263604 26.2517C0.436936 25.9402 0.687088 25.6782 0.99026 25.4907C0.997211 25.4841 1.00515 25.4786 1.01379 25.4744C1.04801 25.4527 1.0837 25.4333 1.12061 25.4165L1.13509 25.4056L4.21267 23.6351L14.5986 17.661L27.1153 10.4612L44.5888 0.413824C44.6163 0.394536 44.6454 0.37758 44.6757 0.363134C44.829 0.277595 45.0016 0.232722 45.1772 0.23279C45.3153 0.232552 45.4521 0.259522 45.5798 0.312161C45.7075 0.364799 45.8236 0.442076 45.9214 0.539577C46.0193 0.637079 46.0969 0.752896 46.15 0.880417C46.2031 1.00794 46.2305 1.14466 46.2308 1.28279L46.229 1.27736Z" fill="#01ABFF"/>
<path d="M60.8276 31.0632V45.6093C60.8272 45.9703 60.7337 46.3251 60.5561 46.6394C60.3785 46.9537 60.1228 47.2168 59.8138 47.4034L59.7251 47.4541L56.6131 49.2463L52.681 51.5092L46.2326 55.2186L33.7123 62.4184L16.2424 72.4658C16.2145 72.4844 16.1855 72.5014 16.1555 72.5165C16.0015 72.6016 15.8282 72.6459 15.6523 72.645C15.5141 72.6453 15.3773 72.6183 15.2496 72.5656C15.1219 72.513 15.0058 72.4357 14.908 72.3382C14.8101 72.2407 14.7325 72.1249 14.6794 71.9974C14.6263 71.8699 14.5989 71.7331 14.5986 71.595V57.6554C14.5983 57.2942 14.6915 56.9392 14.8692 56.6248C15.0468 56.3104 15.3029 56.0473 15.6124 55.8613C15.6541 55.8342 15.6993 55.8106 15.741 55.7889L18.9634 53.9333L37.9267 43.0242L40.1987 41.7171L40.3454 41.6338L40.3598 41.6248C40.4989 41.5281 40.6125 41.3993 40.691 41.2492C40.7695 41.0992 40.8105 40.9324 40.8106 40.763C40.8091 40.5909 40.7661 40.4216 40.6851 40.2697C40.604 40.1177 40.4875 39.9876 40.3454 39.8905C40.3118 39.8681 40.2767 39.8482 40.2404 39.8307L37.6552 38.3354L28.7845 33.2284L28.6143 33.1288C28.4787 33.0324 28.3681 32.905 28.2918 32.7571C28.2155 32.6092 28.1757 32.4453 28.1757 32.2789C28.1757 32.1125 28.2155 31.9485 28.2918 31.8006C28.3681 31.6528 28.4787 31.5253 28.6143 31.4289L28.7954 31.3275C28.8038 31.3216 28.8129 31.3168 28.8225 31.313L44.9925 22.0079L45.1192 21.9355C45.4207 21.7779 45.7558 21.6957 46.0959 21.6957C46.4361 21.6957 46.7711 21.7779 47.0726 21.9355L47.2102 22.0151L56.6348 27.4353L59.7468 29.2275C59.7769 29.2424 59.806 29.2593 59.8337 29.2782C60.1345 29.4606 60.3837 29.7167 60.5579 30.0223C60.7456 30.3402 60.8438 30.703 60.8421 31.0723L60.8276 31.0632Z" fill="#0057FF"/>
</svg>
