<svg width="220" height="58" viewBox="0 0 220 58" fill="none" xmlns="http://www.w3.org/2000/svg">
<g clip-path="url(#clip0_43_678)">
<mask id="mask0_43_678" style="mask-type:luminance" maskUnits="userSpaceOnUse" x="0" y="0" width="220" height="58">
<path d="M220 0.431274H0V57.3515H220V0.431274Z" fill="white"/>
</mask>
<g mask="url(#mask0_43_678)">
<path fill-rule="evenodd" clip-rule="evenodd" d="M12.6316 0.987305C5.65536 0.987305 0 6.65044 0 13.6363V44.1425C0 51.1284 5.65536 56.7916 12.6316 56.7916H43.096C50.0722 56.7916 55.7276 51.1284 55.7276 44.1425V13.6363C55.7276 6.65044 50.0722 0.987305 43.096 0.987305H12.6316ZM39.0786 13.8944C39.0786 12.9299 38.3048 12.1481 37.3503 12.1481H32.08C31.1258 12.1481 30.3521 12.9299 30.3521 13.8944V15.2041C30.3521 16.1685 29.5784 16.9503 28.624 16.9503H27.5009C26.5467 16.9503 25.773 17.7321 25.773 18.6966V20.1808C25.773 21.1454 24.9993 21.9271 24.0449 21.9271H18.7746C17.8202 21.9271 17.0466 22.709 17.0466 23.6733V25.0703C17.0466 26.0349 17.8202 26.8166 18.7746 26.8166H24.0449C24.9993 26.8166 25.773 27.5983 25.773 28.5628V39.6516C25.773 40.6157 24.9993 41.3976 24.0449 41.3976H18.7746C17.8202 41.3976 17.0466 42.1796 17.0466 43.1439V44.5411C17.0466 45.5056 17.8202 46.2873 18.7746 46.2873H24.0449C24.9993 46.2873 25.773 45.5056 25.773 44.5411V43.4931C25.773 42.5288 26.5467 41.7471 27.5009 41.7471H28.8833C29.8377 41.7471 30.6112 40.9653 30.6112 40.0008V28.5628C30.6112 27.5983 31.385 26.8166 32.3391 26.8166H37.6097C38.564 26.8166 39.3377 26.0349 39.3377 25.0703V23.6733C39.3377 22.709 38.564 21.9271 37.6097 21.9271H32.3391C31.385 21.9271 30.6112 21.1454 30.6112 20.1808V18.7838C30.6112 17.8195 31.385 17.0377 32.3391 17.0377H37.3503C38.3048 17.0377 39.0786 16.2559 39.0786 15.2914V13.8944Z" fill="white"/>
<path fill-rule="evenodd" clip-rule="evenodd" d="M93.0383 15.1895C93.7997 15.1895 94.417 15.7929 94.417 16.5374V17.6157C94.417 18.3601 93.7997 18.9637 93.0383 18.9637H89.0409C88.2794 18.9637 87.6623 19.5671 87.6623 20.3116V21.39C87.6623 22.1343 88.2794 22.7378 89.0409 22.7378H93.2451C94.0065 22.7378 94.6236 23.3414 94.6236 24.0859V25.1641C94.6236 25.9086 94.0065 26.5121 93.2451 26.5121H89.0409C88.2794 26.5121 87.6623 27.1155 87.6623 27.86V36.6889C87.6623 37.4335 87.045 38.0368 86.2836 38.0368H85.181C84.4195 38.0368 83.8024 38.6402 83.8024 39.3847V40.1935C83.8024 40.9381 83.1853 41.5414 82.4237 41.5414H78.2193C77.4581 41.5414 76.8408 40.9381 76.8408 40.1935V39.1152C76.8408 38.3707 77.4581 37.7673 78.2193 37.7673H82.4237C83.1853 37.7673 83.8024 37.1636 83.8024 36.4194V27.86C83.8024 27.1155 83.1853 26.5121 82.4237 26.5121H78.2193C77.4581 26.5121 76.8408 25.9086 76.8408 25.1641V24.0859C76.8408 23.3414 77.4581 22.7378 78.2193 22.7378H82.4237C83.1853 22.7378 83.8024 22.1343 83.8024 21.39V20.2441C83.8024 19.4998 84.4195 18.8963 85.181 18.8963H86.0768C86.8382 18.8963 87.4555 18.2927 87.4555 17.5483V16.5374C87.4555 15.7929 88.0727 15.1895 88.8339 15.1895H93.0383ZM103.791 17.7505C103.791 18.4949 104.408 19.0985 105.169 19.0985H106.273C107.033 19.0985 107.65 18.4949 107.65 17.7505V16.6048C107.65 15.8604 107.033 15.2568 106.273 15.2568H105.169C104.408 15.2568 103.791 15.8604 103.791 16.6048V17.7505ZM121.608 15.4591C122.37 15.4591 122.987 16.0625 122.987 16.8069V17.2787C122.987 18.0231 123.604 18.6267 124.366 18.6267H125.33C126.092 18.6267 126.709 19.2301 126.709 19.9746V36.4194C126.709 37.1636 127.326 37.7673 128.088 37.7673H131.603C132.364 37.7673 132.981 38.3707 132.981 39.1152V40.1935C132.981 40.9381 132.364 41.5414 131.603 41.5414H117.266C116.505 41.5414 115.888 40.9381 115.888 40.1935V39.1152C115.888 38.3707 116.505 37.7673 117.266 37.7673H121.47C122.233 37.7673 122.849 37.1636 122.849 36.4194V20.5811C122.849 19.8368 122.233 19.2332 121.47 19.2332H118.163C117.401 19.2332 116.784 18.6297 116.784 17.8853V16.8069C116.784 16.0625 117.401 15.4591 118.163 15.4591H121.608ZM102.55 22.4683C103.311 22.4683 103.929 23.0717 103.929 23.8162V24.8946C103.929 25.6389 104.546 26.2424 105.307 26.2424H106.273C107.033 26.2424 107.65 26.846 107.65 27.5903V36.4194C107.65 37.1636 108.267 37.7673 109.029 37.7673H112.544C113.305 37.7673 113.923 38.3707 113.923 39.1152V40.1935C113.923 40.9381 113.305 41.5414 112.544 41.5414H98.2078C97.4464 41.5414 96.8291 40.9381 96.8291 40.1935V39.1152C96.8291 38.3707 97.4464 37.7673 98.2078 37.7673H102.412C103.174 37.7673 103.791 37.1636 103.791 36.4194V27.5903C103.791 26.846 103.174 26.2424 102.412 26.2424H99.1039C98.3425 26.2424 97.7252 25.6389 97.7252 24.8946V23.8162C97.7252 23.0717 98.3425 22.4683 99.1039 22.4683H102.55ZM179.988 37.7673C180.75 37.7673 181.367 38.3707 181.367 39.1152V40.1935C181.367 40.9381 180.75 41.5414 179.988 41.5414H165.653C164.891 41.5414 164.273 40.9381 164.273 40.1935V39.1152C164.273 38.3707 164.891 37.7673 165.653 37.7673H169.857C170.618 37.7673 171.235 37.1636 171.235 36.4194V27.5903C171.235 26.846 170.618 26.2424 169.857 26.2424H166.479C165.718 26.2424 165.101 25.6389 165.101 24.8946V23.8162C165.101 23.0717 165.718 22.4683 166.479 22.4683H169.925C170.687 22.4683 171.304 23.0717 171.304 23.8162V24.8946C171.304 25.6389 171.921 26.2424 172.682 26.2424H173.717C174.478 26.2424 175.095 26.846 175.095 27.5903V36.4194C175.095 37.1636 175.712 37.7673 176.474 37.7673H179.988ZM156.347 22.4683C157.108 22.4683 157.725 23.0717 157.725 23.8162V24.8946C157.725 25.6389 158.343 26.2424 159.104 26.2424H160C160.762 26.2424 161.379 26.846 161.379 27.5903V40.1935C161.379 40.9381 160.762 41.5414 160 41.5414H158.898C158.136 41.5414 157.519 40.9381 157.519 40.1935V27.5903C157.519 26.846 156.902 26.2424 156.141 26.2424H151.454C150.959 26.2424 150.558 26.6348 150.558 27.1186V40.1935C150.558 40.9381 149.94 41.5414 149.179 41.5414H148.077C147.315 41.5414 146.698 40.9381 146.698 40.1935V27.5903C146.698 26.846 146.08 26.2424 145.319 26.2424H141.115C140.354 26.2424 139.736 26.846 139.736 27.5903V40.1935C139.736 40.9381 139.119 41.5414 138.358 41.5414H137.255C136.493 41.5414 135.877 40.9381 135.877 40.1935V23.8162C135.877 23.0717 136.493 22.4683 137.255 22.4683H156.347ZM197.701 26.2424C196.94 26.2424 196.324 25.6389 196.324 24.8946V23.8162C196.324 23.0717 195.706 22.4683 194.946 22.4683H185.641C184.879 22.4683 184.263 23.0717 184.263 23.8162V40.1935C184.263 40.9381 184.879 41.5414 185.641 41.5414H186.743C187.504 41.5414 188.122 40.9381 188.122 40.1935V27.5903C188.122 26.846 188.738 26.2424 189.501 26.2424H194.808C195.569 26.2424 196.187 26.846 196.187 27.5903V40.1935C196.187 40.9381 196.803 41.5414 197.564 41.5414H198.667C199.428 41.5414 200.046 40.9381 200.046 40.1935V27.5903C200.046 26.846 199.428 26.2424 198.667 26.2424H197.701ZM214.967 22.4683C215.728 22.4683 216.346 23.0717 216.346 23.8162V24.8946C216.346 25.6389 216.964 26.2424 217.725 26.2424H218.619C219.382 26.2424 219.998 26.846 219.998 27.5903V32.5102C219.998 33.2547 219.382 33.8583 218.619 33.8583H209.108C208.347 33.8583 207.731 34.4616 207.731 35.2061V36.4194C207.731 37.1636 208.347 37.7673 209.108 37.7673H218.619C219.382 37.7673 219.998 38.3707 219.998 39.1152V40.1935C219.998 40.9381 219.382 41.5414 218.619 41.5414H208.833C208.072 41.5414 207.454 40.9381 207.454 40.1935V39.1152C207.454 38.3707 206.837 37.7673 206.076 37.7673H205.249C204.488 37.7673 203.87 37.1636 203.87 36.4194V23.8162C203.87 23.0717 204.488 22.4683 205.249 22.4683H214.967ZM216.139 28.7361C216.139 29.4806 215.521 30.084 214.76 30.084H209.108C208.347 30.084 207.731 29.4806 207.731 28.7361V27.5903C207.731 26.846 208.347 26.2424 209.108 26.2424H214.76C215.521 26.2424 216.139 26.846 216.139 27.5903V28.7361ZM175.095 17.7505C175.095 18.4949 174.478 19.0985 173.717 19.0985H172.614C171.852 19.0985 171.235 18.4949 171.235 17.7505V16.6048C171.235 15.8604 171.852 15.2568 172.614 15.2568H173.717C174.478 15.2568 175.095 15.8604 175.095 16.6048V17.7505Z" fill="white"/>
</g>
</g>
<defs>
<clipPath id="clip0_43_678">
<rect width="220" height="57.0167" fill="white" transform="translate(0 0.431274)"/>
</clipPath>
</defs>
</svg>
