<svg width="162" height="64" viewBox="0 0 162 64" fill="none" xmlns="http://www.w3.org/2000/svg">
<g clip-path="url(#clip0_43_686)">
<path d="M29.8184 63.3605C33.4298 63.3605 36.5293 61.197 37.9066 58.0975C38.2403 57.3424 37.6831 56.494 36.8574 56.494H22.7795C21.9537 56.494 21.3937 57.3424 21.7303 58.0975C23.1075 61.197 26.207 63.3605 29.8184 63.3605Z" fill="url(#paint0_linear_43_686)"/>
<path d="M51.4186 47.9703C49.1279 47.9703 47.2727 46.1151 47.2727 43.8244V28.7622C47.2727 20.6005 41.6704 13.7482 34.1026 11.8364C33.8255 9.68427 31.9901 8.01855 29.7616 8.01855C27.5331 8.01855 25.6836 9.69841 25.4178 11.8619C18.6249 13.6237 13.4439 19.3731 12.5107 26.463C12.4965 26.5677 12.4824 26.6695 12.4711 26.7741C12.4541 26.9155 12.44 27.0541 12.4287 27.1955C12.4173 27.3369 12.406 27.4783 12.3976 27.6197C12.3891 27.7385 12.3806 27.8544 12.3749 27.9732C12.3636 28.2108 12.358 28.4511 12.358 28.6943C12.358 28.717 12.358 28.7396 12.358 28.7622V43.8215C12.358 46.1009 10.5197 47.9505 8.24319 47.9674C7.15723 47.9759 6.26074 48.813 6.26074 49.9018V49.9188C6.26074 50.9963 7.1346 51.8701 8.21208 51.8701H51.413C52.4904 51.8701 53.3643 50.9963 53.3643 49.9188C53.37 48.8441 52.4961 47.9703 51.4186 47.9703Z" fill="url(#paint1_linear_43_686)"/>
<path d="M42.3268 8.86427C47.1854 9.90499 50.8957 14.0877 51.3539 19.0367C51.4048 19.5854 51.8827 19.9954 52.4426 19.9417C52.7085 19.9162 52.9489 19.789 53.1214 19.5854C53.2911 19.3789 53.3731 19.1187 53.3476 18.8529C53.079 15.9626 51.9138 13.2902 49.9766 11.1182C48.0536 8.96608 45.5536 7.50964 42.7454 6.90727C42.6747 6.89313 42.604 6.88464 42.5361 6.88464C42.0751 6.88464 41.6566 7.20704 41.5576 7.67649C41.4416 8.21665 41.7867 8.74832 42.3268 8.86427Z" fill="url(#paint2_linear_43_686)"/>
<path d="M43.45 2.42189C51.0093 4.04235 56.7869 10.5525 57.4996 18.2504C57.5505 18.7991 58.0284 19.2063 58.5884 19.1554C58.8542 19.1299 59.0946 19.0027 59.2671 18.7991C59.4368 18.5926 59.5188 18.3324 59.4933 18.0666C59.1002 13.8104 57.3808 9.86811 54.5245 6.67243C51.6908 3.49937 48.0059 1.35289 43.8713 0.464885C43.8006 0.450745 43.7299 0.442261 43.6621 0.442261C43.2011 0.442261 42.7825 0.764657 42.6836 1.23411C42.5648 1.77427 42.9098 2.30594 43.45 2.42189Z" fill="url(#paint3_linear_43_686)"/>
<path d="M17.3076 8.86417C17.8477 8.74822 18.1928 8.21372 18.0768 7.67356C17.975 7.20411 17.5593 6.88171 17.0983 6.88171C17.0304 6.88171 16.9597 6.8902 16.889 6.90434C14.0808 7.50671 11.5808 8.96315 9.65778 11.1153C7.72059 13.2844 6.55262 15.9597 6.28678 18.85C6.26133 19.1158 6.34334 19.376 6.51302 19.5824C6.6827 19.7889 6.92591 19.9161 7.19175 19.9388C7.75453 19.9897 8.22963 19.5824 8.28054 19.0338C8.73868 14.0904 12.4519 9.90772 17.3076 8.86417Z" fill="url(#paint4_linear_43_686)"/>
<path d="M16.1848 2.42191C16.7249 2.30596 17.0699 1.77146 16.954 1.2313C16.8522 0.76185 16.4364 0.439453 15.9755 0.439453C15.9048 0.439453 15.8369 0.447937 15.7662 0.462077C11.6288 1.35008 7.94672 3.49656 5.11304 6.66962C2.25674 9.86814 0.540126 13.8076 0.144203 18.0638C0.118751 18.3296 0.200763 18.5898 0.370445 18.7963C0.540126 19.0027 0.783336 19.13 1.04917 19.1526C1.60912 19.2035 2.08705 18.7963 2.13796 18.2476C2.85062 10.5525 8.62827 4.0452 16.1848 2.42191Z" fill="url(#paint5_linear_43_686)"/>
<path d="M152.426 15.2329C150.101 15.2188 147.921 16.1012 146.275 17.7216V5.04352C146.275 4.95303 146.201 4.88232 146.111 4.88232H141.207C141.117 4.88232 141.043 4.95585 141.043 5.04352V39.2656C141.043 39.3561 141.117 39.4268 141.207 39.4268H146.111C146.201 39.4268 146.275 39.3533 146.275 39.2656V25.3771C146.275 22.8347 148.249 20.6458 150.819 20.5186C153.568 20.3856 155.845 22.5547 155.845 25.2386V39.2656C155.845 39.3561 155.918 39.4268 156.009 39.4268H160.848C160.938 39.4268 161.012 39.3533 161.012 39.2656V23.9574C161.012 19.2346 157.211 15.2612 152.426 15.2329Z" fill="white"/>
<path d="M115.398 14.3422H110.517C110.427 14.3422 110.353 14.4157 110.353 14.5034V29.6956C110.353 32.3002 108.142 34.4043 105.478 34.2742C102.983 34.1526 101.069 32.0287 101.069 29.5627V14.5034C101.069 14.4129 100.995 14.3422 100.905 14.3422H96.0263C95.9358 14.3422 95.8623 14.4157 95.8623 14.5034V29.4891C95.8623 34.7832 100.056 39.2628 105.415 39.4212C110.981 39.5852 115.565 35.1594 115.565 29.6956V14.5034C115.562 14.4157 115.489 14.3422 115.398 14.3422Z" fill="white"/>
<path d="M118.868 33.9574C119.804 36.0134 122.214 39.4664 127.842 39.4664C134.273 39.4664 137.149 35.6684 137.149 31.9042C137.149 27.7753 134.42 25.2866 128.806 24.2912C125.953 23.8104 124.737 22.9083 124.737 21.2765C124.737 19.7578 126.091 18.7369 128.108 18.7369C129.926 18.7369 131.456 19.7522 132.01 21.3274C132.021 21.3641 132.05 21.3924 132.084 21.4066C132.118 21.4207 132.152 21.4207 132.186 21.4066L136.221 19.6051C136.283 19.5768 136.317 19.5033 136.292 19.4382C135.056 16.251 131.973 14.3478 128.054 14.3478C122.502 14.3478 119.598 17.8602 119.598 21.3302C119.598 25.4309 122.273 27.9026 127.779 28.8924C130.709 29.4834 131.959 30.4167 131.959 32.0145C131.959 33.7368 130.441 34.7662 127.895 34.7662C125.955 34.7662 124.177 33.6548 123.362 31.9382C123.339 31.8901 123.294 31.8618 123.243 31.8618C123.226 31.8618 123.207 31.8647 123.19 31.8731L118.933 33.7934C118.868 33.8188 118.84 33.8924 118.868 33.9574Z" fill="white"/>
<path d="M82.3412 4.92212H70.1213C69.9431 4.92212 69.796 5.06918 69.7989 5.24734V39.1866C69.7989 39.3648 69.9431 39.509 70.1213 39.509H74.6602C74.8384 39.509 74.9826 39.3648 74.9826 39.1866L75.0109 25.8553C75.0109 25.6771 75.1551 25.53 75.3333 25.53H82.3383C88.0113 25.53 92.457 21.0023 92.457 15.2218C92.4598 9.42436 88.017 4.92212 82.3412 4.92212ZM82.4345 20.383L79.2784 20.3887C77.9492 20.3915 76.7784 21.2625 76.3966 22.5351L76.2439 23.0414C76.21 23.1517 76.111 23.2252 75.9951 23.2252H75.2456C75.1014 23.2252 74.9855 23.1092 74.9855 22.965V10.3717C74.9855 10.1936 75.1297 10.0494 75.3079 10.0494H82.064C84.7308 10.0494 87.0017 12.012 87.2958 14.6619C87.6437 17.7642 85.4322 20.2869 82.4345 20.383Z" fill="white"/>
<path d="M70.8622 55.5214V47.5916H73.6591C75.1325 47.5916 76.3316 48.7256 76.3316 50.1396C76.3316 51.5536 75.1862 52.7669 73.6591 52.7669H72.05V55.5185H70.8594L70.8622 55.5214ZM72.0528 51.6696H73.4696C74.3972 51.6696 75.0788 51.0135 75.0788 50.1396C75.0788 49.2658 74.4001 48.6662 73.4696 48.6662H72.0528V51.6668V51.6696Z" fill="white"/>
<path d="M87.4462 55.5214H85.8484L82.8478 52.4869V55.5214H81.6572V47.5916H84.4202C86.018 47.5916 87.0588 48.7143 87.0588 50.0039C87.0588 51.2935 86.0746 52.4614 84.4202 52.4614H84.2845L87.4462 55.5185V55.5214ZM82.8478 48.6803V51.3755H84.2873C85.2488 51.3755 85.8172 50.7985 85.8172 50.0039C85.8172 49.2092 85.2516 48.6775 84.2873 48.6775H82.8478V48.6803Z" fill="white"/>
<path d="M92.1123 51.5567C92.1123 49.2688 93.9138 47.4786 96.2356 47.4786C98.5574 47.4786 100.359 49.2688 100.359 51.5567C100.359 53.8446 98.5461 55.6347 96.2356 55.6347C93.9251 55.6347 92.1123 53.8446 92.1123 51.5567ZM99.1003 51.5567C99.1003 49.9249 97.8871 48.6353 96.2356 48.6353C94.584 48.6353 93.3821 49.9277 93.3821 51.5567C93.3821 53.1856 94.584 54.478 96.2356 54.478C97.8871 54.478 99.1003 53.1856 99.1003 51.5567Z" fill="white"/>
<path d="M107.29 55.5214V48.703H104.775V47.5916H111.017V48.703H108.514V55.5214H107.29Z" fill="white"/>
<path d="M115.435 51.5567C115.435 49.2688 117.236 47.4786 119.558 47.4786C121.88 47.4786 123.681 49.2688 123.681 51.5567C123.681 53.8446 121.868 55.6347 119.558 55.6347C117.247 55.6347 115.435 53.8446 115.435 51.5567ZM122.423 51.5567C122.423 49.9249 121.209 48.6353 119.558 48.6353C117.906 48.6353 116.704 49.9277 116.704 51.5567C116.704 53.1856 117.906 54.478 119.558 54.478C121.209 54.478 122.423 53.1856 122.423 51.5567Z" fill="white"/>
<path d="M128.664 51.5567C128.664 49.2688 130.466 47.4786 132.765 47.4786C134.295 47.4786 135.505 48.2026 136.209 49.314L135.191 49.9362C134.716 49.1557 133.842 48.6325 132.768 48.6325C131.158 48.6325 129.925 49.9136 129.925 51.5538C129.925 53.1941 131.161 54.4752 132.768 54.4752C133.845 54.4752 134.716 53.9435 135.191 53.1715L136.209 53.7823C135.519 54.9022 134.261 55.629 132.765 55.629C130.466 55.629 128.664 53.8389 128.664 51.551V51.5567Z" fill="white"/>
<path d="M141.204 51.5567C141.204 49.2688 143.006 47.4786 145.327 47.4786C147.649 47.4786 149.451 49.2688 149.451 51.5567C149.451 53.8446 147.638 55.6347 145.327 55.6347C143.017 55.6347 141.204 53.8446 141.204 51.5567ZM148.192 51.5567C148.192 49.9249 146.979 48.6353 145.327 48.6353C143.676 48.6353 142.474 49.9277 142.474 51.5567C142.474 53.1856 143.676 54.478 145.327 54.478C146.979 54.478 148.192 53.1856 148.192 51.5567Z" fill="white"/>
<path d="M154.99 55.5214V47.5916H156.158V54.41H159.705V55.5214H154.993H154.99Z" fill="white"/>
</g>
<defs>
<linearGradient id="paint0_linear_43_686" x1="39.281" y1="41.5987" x2="27.7567" y2="61.1885" gradientUnits="userSpaceOnUse">
<stop stop-color="#FF94A6"/>
<stop offset="0.32" stop-color="#E03DC1"/>
<stop offset="1" stop-color="#8247E5"/>
</linearGradient>
<linearGradient id="paint1_linear_43_686" x1="44.801" y1="19.9189" x2="20.4912" y2="54.4661" gradientUnits="userSpaceOnUse">
<stop stop-color="#FF94A6"/>
<stop offset="0.32" stop-color="#E03DC1"/>
<stop offset="1" stop-color="#8247E5"/>
</linearGradient>
<linearGradient id="paint2_linear_43_686" x1="64.3797" y1="2.17313" x2="5.35304" y2="41.3525" gradientUnits="userSpaceOnUse">
<stop stop-color="#FF94A6"/>
<stop offset="0.32" stop-color="#E03DC1"/>
<stop offset="1" stop-color="#8247E5"/>
</linearGradient>
<linearGradient id="paint3_linear_43_686" x1="63.8259" y1="1.33875" x2="4.79917" y2="40.5181" gradientUnits="userSpaceOnUse">
<stop stop-color="#FF94A6"/>
<stop offset="0.32" stop-color="#E03DC1"/>
<stop offset="1" stop-color="#8247E5"/>
</linearGradient>
<linearGradient id="paint4_linear_43_686" x1="53.3564" y1="-14.4304" x2="-5.6703" y2="24.749" gradientUnits="userSpaceOnUse">
<stop stop-color="#FF94A6"/>
<stop offset="0.32" stop-color="#E03DC1"/>
<stop offset="1" stop-color="#8247E5"/>
</linearGradient>
<linearGradient id="paint5_linear_43_686" x1="50.4576" y1="-18.7997" x2="-8.54369" y2="20.3655" gradientUnits="userSpaceOnUse">
<stop stop-color="#FF94A6"/>
<stop offset="0.32" stop-color="#E03DC1"/>
<stop offset="1" stop-color="#8247E5"/>
</linearGradient>
<clipPath id="clip0_43_686">
<rect width="160.872" height="62.921" fill="white" transform="translate(0.138672 0.439453)"/>
</clipPath>
</defs>
</svg>
