<svg width="253" height="89" viewBox="0 0 253 89" fill="none" xmlns="http://www.w3.org/2000/svg">
<path fill-rule="evenodd" clip-rule="evenodd" d="M52.931 50.1516C48.6798 48.163 45.7753 47.3857 45.7753 47.3857C46.0076 46.7404 46.5233 45.1544 46.9554 43.8251C47.1431 43.2479 47.3151 42.719 47.4411 42.3369C48.7738 42.5893 50.1898 42.7577 51.6057 42.8419C56.8531 43.2626 60.8511 42.2528 63.4331 39.8966C65.9319 37.5405 66.5149 34.3429 66.5149 32.1551C66.5149 26.8538 62.2671 22.4781 56.9364 22.4781C55.3418 22.4781 53.158 22.8369 50.7819 24.7283C48.53 26.5208 47.0183 31.2179 45.5238 35.8619C45.4413 36.1184 45.3589 36.3745 45.2764 36.63C42.8971 35.989 40.6682 35.0292 38.8067 33.9219C38.8285 33.6831 38.8397 33.4412 38.8397 33.1967C38.8397 28.8566 35.3214 25.3383 30.9813 25.3383C26.6413 25.3383 23.123 28.8566 23.123 33.1967C23.123 37.5367 26.6413 41.055 30.9813 41.055C33.0752 41.055 34.9778 40.2361 36.3863 38.9011C38.5857 40.0324 41.019 40.9252 43.6097 41.5796C43.3774 42.2249 42.8617 43.8112 42.4295 45.1404C42.2419 45.7176 42.07 46.2463 41.9439 46.6284C40.6112 46.376 39.1953 46.2077 37.7793 46.1235C32.5319 45.7028 28.5339 46.7126 25.9519 49.0687C23.4531 51.4248 22.8701 54.6224 22.8701 56.8102C22.8701 62.1115 27.118 66.4872 32.4486 66.4872C34.5205 66.4872 35.9308 66.2388 38.0888 64.5618C40.7822 62.4687 42.413 57.5466 43.9798 52.8177L44.1393 52.3364C46.5341 52.9815 48.6944 54.215 50.5564 55.3536C50.5484 55.4987 50.5443 55.6449 50.5443 55.792C50.5443 60.132 54.0626 63.6502 58.4027 63.6502C62.7427 63.6502 66.261 60.132 66.261 55.792C66.261 51.4519 62.7427 47.9335 58.4027 47.9335C56.2756 47.9335 54.3459 48.7787 52.931 50.1516ZM61.8506 35.521C59.0676 38.4731 53.3057 38.2787 49.0544 37.4823C49.1571 37.1803 49.2806 36.7953 49.4241 36.3475C50.72 32.3052 53.6568 23.1442 57.8526 23.7404C60.6845 24.3294 62.6835 29.4624 62.9334 31.3978C63.1 33.1648 62.7668 34.5112 61.8506 35.521ZM27.3678 53.3602C30.0799 50.4491 36.6858 50.6897 40.3435 51.5109C40.2747 51.7048 40.1954 51.9329 40.106 52.1898C38.7985 55.9484 35.3465 65.8717 31.3658 65.1409C28.5339 64.5518 26.5349 59.4188 26.285 57.4834C26.1185 55.7163 26.4516 54.37 27.3678 53.3602Z" fill="url(#paint0_linear_43_712)"/>
<path d="M88.2668 32.2807C88.2668 27.6924 90.5179 25.4399 95.1033 25.4399L100.991 25.4396V31.1959L97.1877 31.1962C94.6678 31.1962 94.6748 32.1513 94.6852 33.5788C94.6859 33.6725 94.6865 33.7682 94.6865 33.8658V36.6188L100.991 36.6185V42.3748L94.6865 42.3751V63.1479H88.2668V42.3751H83.5146V36.6188H88.2668V32.2807Z" fill="white"/>
<path d="M112.342 36.6706C112.342 36.6706 111.449 36.651 109.092 36.651C106.734 36.651 105.913 36.6706 105.913 36.6706V63.1997H112.342V36.6706Z" fill="white"/>
<path d="M167.674 36.7023V63.2314H174.108V36.7023C172.328 36.7027 171.194 36.7026 169.939 36.7024L167.674 36.7023Z" fill="white"/>
<path d="M220.162 36.1183C215.993 36.1183 214.159 37.7868 213.492 38.7879L212.742 39.8724V36.7023H206.322V63.2314H212.742V47.0469C212.742 42.7088 215.91 41.1238 218.578 41.1238C221.246 41.1238 224.414 42.7088 224.414 47.0469V63.2314H230.833V46.7132C230.75 38.9547 225.248 36.1183 220.162 36.1183Z" fill="white"/>
<path fill-rule="evenodd" clip-rule="evenodd" d="M202.487 47.9646V51.6353C202.487 59.227 198.152 63.4816 190.231 63.4816C182.311 63.4816 177.976 59.3104 177.976 51.6353V47.9646C177.976 40.373 182.311 36.1183 190.231 36.1183C198.152 36.1183 202.487 40.373 202.487 47.9646ZM195.65 47.0469C195.65 43.7099 193.733 41.2072 190.231 41.2072C186.73 41.2072 184.812 43.7099 184.812 47.0469V52.553C184.812 55.89 186.73 58.643 190.231 58.643C193.733 58.643 195.65 55.89 195.65 52.553V47.0469Z" fill="white"/>
<path d="M129.04 47.0376C128.51 46.9204 127.993 46.8217 127.5 46.7274C124.99 46.248 123.089 45.885 123.089 43.7933C123.089 42.0586 124.968 41.0852 127.219 41.0852C129.992 41.0852 131.204 42.0027 131.41 43.8767H137.461C137.042 39.2329 133.991 36.285 127.008 36.285C122.398 36.285 116.795 38.1572 116.795 43.8767C116.795 49.9962 122.02 51.5499 127.486 52.7824C131.184 53.6163 132.213 54.1664 132.213 55.9545C132.213 57.7426 129.855 58.7082 127.6 58.7136C125.118 58.7136 122.176 58.1864 122.176 54.8625H115.895C116.127 61.0017 120.799 63.7747 127.241 63.7747C134.335 63.7747 138.549 60.9736 138.549 55.7064C138.549 49.6825 133.364 47.9927 129.04 47.0376Z" fill="white"/>
<path d="M153.057 46.7274C153.551 46.8217 154.067 46.9204 154.598 47.0376C158.921 47.9927 164.106 49.6825 164.106 55.7064C164.106 60.9736 159.893 63.7747 152.798 63.7747C146.356 63.7747 141.685 61.0017 141.452 54.8625H147.734C147.734 58.1864 150.676 58.7136 153.158 58.7136C155.412 58.7082 157.77 57.7426 157.77 55.9545C157.77 54.1664 156.742 53.6163 153.044 52.7824C147.578 51.5499 142.353 49.9962 142.353 43.8767C142.353 38.1572 147.955 36.285 152.566 36.285C159.548 36.285 162.599 39.2329 163.019 43.8767H156.967C156.761 42.0027 155.55 41.0852 152.777 41.0852C150.526 41.0852 148.647 42.0586 148.647 43.7933C148.647 45.885 150.547 46.248 153.057 46.7274Z" fill="white"/>
<path d="M112.813 29.6356C112.813 31.662 111.17 33.3048 109.144 33.3048C107.117 33.3048 105.474 31.662 105.474 29.6356C105.474 27.6091 107.117 25.9664 109.144 25.9664C111.17 25.9664 112.813 27.6091 112.813 29.6356Z" fill="white"/>
<path d="M170.919 33.3047C172.946 33.3047 174.588 31.6619 174.588 29.6355C174.588 27.6091 172.946 25.9663 170.919 25.9663C168.893 25.9663 167.25 27.6091 167.25 29.6355C167.25 31.6619 168.893 33.3047 170.919 33.3047Z" fill="white"/>
<defs>
<linearGradient id="paint0_linear_43_712" x1="22.8701" y1="22.4782" x2="67.2799" y2="65.7012" gradientUnits="userSpaceOnUse">
<stop stop-color="#FF5274"/>
<stop offset="1" stop-color="#6446FA"/>
</linearGradient>
</defs>
</svg>
