<svg width="124" height="27" viewBox="0 0 124 27" fill="none" xmlns="http://www.w3.org/2000/svg">
<path d="M38.5438 23.4839V6.62921H41.0811L41.3228 7.9897H41.4436C42.1685 7.05783 43.4005 6.39038 45.1158 6.39038C48.2551 6.39038 50.7686 8.92157 50.7686 12.6682C50.7686 16.4149 48.2572 18.9461 45.1158 18.9461C43.4243 18.9461 42.2419 18.2531 41.6141 17.4662H41.4932V23.4818H38.546L38.5438 23.4839ZM47.8192 12.6704C47.8192 10.474 46.3931 9.09003 44.6541 9.09003C42.9151 9.09003 41.4889 10.474 41.4889 12.6704C41.4889 14.8668 42.9151 16.2507 44.6541 16.2507C46.3931 16.2507 47.8192 14.8668 47.8192 12.6704Z" fill="#242424"/>
<path d="M52.2643 12.6705C52.2643 9.01771 54.9203 6.39269 58.4716 6.39269C62.023 6.39269 64.679 9.01771 64.679 12.6705C64.679 16.3234 62.023 18.9484 58.4716 18.9484C54.9203 18.9484 52.2643 16.2978 52.2643 12.6705ZM61.708 12.6705C61.708 10.5211 60.2581 9.09021 58.4716 9.09021C56.6852 9.09021 55.2115 10.5232 55.2115 12.6705C55.2115 14.8179 56.6852 16.2274 58.4716 16.2274C60.2581 16.2274 61.708 14.82 61.708 12.6705Z" fill="#242424"/>
<path d="M66.8151 18.7096V1.99989H69.7623V18.7117H66.8151V18.7096Z" fill="#242424"/>
<path d="M80.7037 6.62927H83.843L78.5288 21.311C77.9981 22.7675 77.2731 23.484 75.3637 23.484H72.5135V20.7864H74.93C75.3658 20.7864 75.6053 20.5711 75.752 20.2128L76.0412 19.426L71.0658 6.62927H74.2051L77.3702 15.0097H77.8535L80.7037 6.62927Z" fill="#242424"/>
<path d="M84.4045 19.3065H87.3992C87.52 20.0933 88.3161 21.1681 90.2019 21.1681C91.9646 21.1681 93.1254 20.0699 93.1254 18.3981V16.7028H93.0046C92.353 17.3958 91.1447 18.0164 89.5977 18.0164C86.4585 18.0164 84.042 15.628 84.042 12.1906C84.042 8.75311 86.4585 6.39038 89.5977 6.39038C91.2159 6.39038 92.4004 7.03437 93.1491 7.94279H93.2699L93.5116 6.62921H96.0726V18.3981C96.0726 21.5967 93.8978 23.7227 90.2019 23.7227C86.0723 23.7227 84.4778 21.0487 84.4045 19.3065ZM93.1254 12.1927C93.1254 10.3076 91.7726 8.99407 90.0573 8.99407C88.342 8.99407 87.013 10.3076 87.013 12.1927C87.013 14.0778 88.3658 15.4148 90.0573 15.4148C91.7489 15.4148 93.1254 14.1012 93.1254 12.1927Z" fill="#242424"/>
<path d="M98.1218 12.6705C98.1218 9.01771 100.778 6.39269 104.329 6.39269C107.881 6.39269 110.537 9.01771 110.537 12.6705C110.537 16.3234 107.881 18.9484 104.329 18.9484C100.778 18.9484 98.1218 16.2978 98.1218 12.6705ZM107.566 12.6705C107.566 10.5211 106.116 9.09021 104.329 9.09021C102.543 9.09021 101.069 10.5232 101.069 12.6705C101.069 14.8179 102.543 16.2274 104.329 16.2274C106.116 16.2274 107.566 14.82 107.566 12.6705Z" fill="#242424"/>
<path d="M112.587 18.7094V6.62921H115.123L115.364 7.77432H115.485C115.968 7.22629 117.177 6.39038 119.011 6.39038C121.813 6.39038 123.841 8.39486 123.841 11.4506V18.7073H120.894V11.8323C120.894 10.2799 119.783 9.15827 118.262 9.15827C116.741 9.15827 115.533 10.329 115.533 11.8323V18.7073H112.585L112.587 18.7094Z" fill="#242424"/>
<path d="M23.4996 18.8312L30.7447 14.6964C31.1287 14.4768 31.3661 14.0695 31.3661 13.6323V5.36278C31.3661 4.92563 31.1287 4.51834 30.7447 4.2987L23.4996 0.163931C23.1155 -0.0557086 22.6387 -0.0535762 22.2568 0.163931L15.0117 4.2987C14.6276 4.51834 14.3903 4.92563 14.3903 5.36278V20.1405L9.30919 23.0384L4.2281 20.1405V14.3424L9.30919 11.4445L12.6599 13.3572V9.4677L9.93057 7.9089C9.74286 7.80228 9.5271 7.7447 9.30919 7.7447C9.09127 7.7447 8.87552 7.80228 8.68781 7.9089L1.44267 12.0437C1.05862 12.2633 0.821289 12.6706 0.821289 13.1077V21.3773C0.821289 21.8144 1.05862 22.2217 1.44267 22.4414L8.68781 26.5761C9.07186 26.7936 9.54652 26.7936 9.93057 26.5761L17.1757 22.4414C17.5598 22.2217 17.7971 21.8144 17.7971 21.3773V6.59746L17.8877 6.54628L22.876 3.69949L27.9571 6.59746V12.3955L22.876 15.2935L19.5296 13.385V17.2745L22.2546 18.829C22.6387 19.0465 23.1155 19.0465 23.4974 18.829L23.4996 18.8312Z" fill="#242424"/>
</svg>
