<svg width="36" height="36" viewBox="0 0 36 36" fill="none" xmlns="http://www.w3.org/2000/svg">
    <g opacity="0.8" clip-path="url(#clip0_1_41)">
        <path
            d="M20.9998 19.4998H14.9998V13.4998H20.9998V19.4998ZM29.9998 13.4998H23.9998V19.4998H29.9998V13.4998ZM11.9998 22.4998H5.99982V28.4998H11.9998V22.4998ZM20.9998 22.4998H14.9998V28.4998H20.9998V22.4998ZM11.9998 13.4998H5.99982V19.4998H11.9998V13.4998ZM35.9998 1.49979V21.5788C35.9998 25.1653 26.0278 35.9998 21.2833 35.9998H-0.000183105V1.49979H35.9998ZM32.9998 10.4998H2.99982V32.9998H20.0428C26.2768 32.9998 23.9998 23.9998 23.9998 23.9998C23.9998 23.9998 32.9998 26.4748 32.9998 20.3143V10.4998Z"
            fill="black" />
    </g>
    <defs>
        <clipPath id="clip0_1_41">
            <rect width="36" height="36" fill="black" />
        </clipPath>
    </defs>
</svg>