<svg width="36" height="36" viewBox="0 0 36 36" fill="none" xmlns="http://www.w3.org/2000/svg">
    <g opacity="0.8" clip-path="url(#clip0_1_49)">
        <path
            d="M9.28197 13.0785C9.94047 12.42 10.671 11.877 11.448 11.448C15.7785 9.06148 21.3315 10.3305 24.1155 14.5515L20.7465 17.919C19.7805 15.7155 17.382 14.4615 14.9955 14.9955C14.097 15.1965 13.2435 15.645 12.546 16.3425L6.08997 22.8015C4.12947 24.762 4.12947 27.951 6.08997 29.9115C8.05047 31.872 11.2395 31.872 13.2 29.9115L15.1905 27.921C17.001 28.6395 18.942 28.926 20.859 28.7835L16.4655 33.177C12.699 36.9435 6.59247 36.9435 2.82597 33.177C-0.940526 29.4105 -0.940526 23.304 2.82597 19.5375L9.28197 13.0785ZM19.536 2.82448L15.1425 7.21798C17.058 7.07398 19.0005 7.36198 20.811 8.07898L22.8 6.08998C24.7605 4.12948 27.9495 4.12948 29.91 6.08998C31.8705 8.05048 31.8705 11.2395 29.91 13.2L23.4525 19.6575C21.486 21.624 18.2925 21.6075 16.3425 19.6575C15.888 19.203 15.4965 18.6375 15.252 18.081L11.883 21.4485C12.237 21.9855 12.6045 22.449 13.077 22.9215C14.295 24.1395 15.846 25.047 17.631 25.4775C19.944 26.034 22.422 25.7265 24.5505 24.552C25.3275 24.123 26.058 23.58 26.7165 22.9215L33.1725 16.464C36.9405 12.6975 36.9405 6.59098 33.174 2.82448C29.4075 -0.940518 23.3025 -0.940518 19.536 2.82448Z"
            fill="black" />
    </g>
    <defs>
        <clipPath id="clip0_1_49">
            <rect width="36" height="36" fill="black" />
        </clipPath>
    </defs>
</svg>