<svg width="646" height="235" viewBox="0 0 646 235" fill="none" xmlns="http://www.w3.org/2000/svg">
<path fill-rule="evenodd" clip-rule="evenodd" d="M36.9316 234.084H18.5739V215.858H36.9316V234.084ZM18.2999 215.584V197.358H0V215.584H18.2999ZM36.9316 197.084H18.5739V178.867H36.9316L36.9316 197.084ZM18.2999 197.084V178.858H0V197.084H18.2999ZM36.9316 160.411H18.5739V160.358H36.9316V160.411ZM18.2999 178.584L18.2999 160.358H0V178.584H18.2999ZM36.9316 160.084H18.5739V142H36.9316V160.084ZM18.2999 160.084V142H0V160.084H18.2999ZM18.2999 234.084L18.2999 215.858H0V234.084H18.2999ZM37.2056 234.084H55.5635V215.858H37.2056V234.084ZM37.2056 197.084H55.5635L55.5635 178.867H37.2056L37.2056 197.084ZM37.2056 160.411H55.5635V160.358H37.2056V160.411ZM37.2056 160.084H55.5635V142H37.2056V160.084ZM73.6037 234.084H55.8375V215.858H73.6037L73.6037 234.084ZM73.6037 197.084H55.8375L55.8375 178.867H73.6037V197.084ZM73.6037 160.411H55.8375V160.358H73.6037V160.411ZM73.6037 160.084H55.8375V142H73.6037V160.084ZM73.8777 215.584H92.1895V197.358H73.8777V215.584ZM73.8777 178.867H92.1895V178.858H73.8777V178.867ZM73.8777 178.584H92.1895V160.411H73.8777V178.584ZM110.867 234.084H128.953V215.858H110.867L110.867 234.084ZM110.867 215.584H128.953V197.358H110.867V215.584ZM110.867 197.084H128.953V178.858H110.867V197.084ZM110.867 178.584H128.953V160.358H110.867V178.584ZM110.867 160.084H128.953V142H110.867V160.084ZM147.627 234.084H129.227V215.858H147.627V234.084ZM147.901 234.084H166.26V215.858H147.901V234.084ZM184.892 234.084H166.534V215.858H184.892V234.084ZM185.166 234.084H202.835V215.858H185.166V234.084ZM257.776 234.084H239.966V215.858H257.776V234.084ZM257.776 160.411H239.966V160.358H257.776V160.411ZM239.966 142V160.084H257.776V142H239.966ZM239.692 178.584V160.411H221.291V178.584H239.692ZM221.291 178.858H239.692V197.084H221.291V178.858ZM221.291 197.358H239.692V215.584H221.291V197.358ZM258.05 234.084H276.407V215.858H258.05V234.084ZM258.05 160.411H276.407V160.358H258.05V160.411ZM258.05 160.084H276.407V142H258.05V160.084ZM294.935 234.084H276.681V215.858H294.935V234.084ZM294.935 160.411H276.681V160.358H294.935V160.411ZM294.935 160.084H276.681V142H294.935V160.084ZM295.208 215.584H313.48V197.358H295.208V215.584ZM295.208 197.084H313.48V178.858H295.208V197.084ZM295.208 178.584H313.48V160.411H295.208V178.584ZM332.03 215.584H350.388V197.358H332.03V215.584ZM332.03 197.084H350.388V178.858H332.03V197.084ZM332.03 178.584H350.388V160.411H332.03V178.584ZM369.02 234.084H350.662V215.858H369.02V234.084ZM369.02 160.411H350.662V160.358H369.02V160.411ZM350.662 142V160.084H369.02V142H350.662ZM369.294 234.084H387.651V215.858H369.294V234.084ZM369.294 160.411H387.651V160.358H369.294V160.411ZM369.294 160.084H387.651V142H369.294V160.084ZM406.283 234.084H387.925V215.858H406.283V234.084ZM406.283 160.411H387.925V160.358H406.283V160.411ZM406.283 160.084H387.925V142H406.283V160.084ZM406.557 234.084H424.126V215.858H406.557V234.084ZM406.557 160.411H424.126V160.358H406.557V160.411ZM406.557 160.084H424.126V142H406.557V160.084ZM442.725 234.084H461.038V215.858H442.725V234.084ZM442.725 215.584H461.038V197.358H442.725V215.584ZM442.725 197.084H461.083V178.867H461.038V178.858H442.725V197.084ZM442.725 178.584H461.038V160.358H442.725V178.584ZM442.725 160.084H461.038V142H442.725V160.084ZM479.715 197.084H461.357V178.867H479.715V197.084ZM479.989 197.084H497.799V178.867H479.989V197.084ZM516.211 215.584H498.073V197.358H516.211V215.584ZM516.211 178.867H498.073V178.858H516.211V178.867ZM498.073 160.411V178.584H516.211V160.411H498.073ZM516.485 234.084H534.771V215.858H516.485V234.084ZM516.485 160.411H534.771V160.358H516.485V160.411ZM516.485 160.084V142H534.771V160.084H516.485ZM553.422 234.084H571.548V215.858H553.422V234.084ZM553.422 178.867H571.548V178.858H553.422V178.867ZM553.422 178.584H571.548V160.411H553.422V178.584ZM589.315 234.084H571.822V215.858H589.315V234.084ZM589.315 197.084H571.822V178.867H589.315V197.084ZM589.315 160.411H571.822V160.358H589.315V160.411ZM571.822 142V160.084H589.315V142H571.822ZM589.589 234.084H607.947V215.858H589.589V234.084ZM589.589 197.084H607.947V178.867H589.589V197.084ZM589.589 160.411H607.947V160.358H589.589V160.411ZM589.589 160.084H607.947V142H589.589V160.084ZM626.81 234.084H608.221V215.858H626.81V234.084ZM626.81 197.084H608.221V178.867H626.81V197.084ZM626.81 160.411H608.221V160.358H626.81V160.411ZM626.81 160.084H608.221V142H626.81V160.084ZM627.084 215.584H645.417V197.358H627.084V215.584ZM627.084 160.411H645.417V160.358H627.084V160.411ZM627.084 160.084H645.417V142H627.084V160.084Z" fill="#242424"/>
<path fill-rule="evenodd" clip-rule="evenodd" d="M3.36484 92.3868H18.4559V92.2457H3.36484V92.3868ZM3.36484 91.9717H18.4559V73.7832H3.36484L3.36484 91.9717ZM3.09084 73.7832L3.09084 91.9717H0V73.7832H3.09084ZM3.36484 73.5092H18.4559V55.475H21.7213V55.0746H3.36484L3.36484 73.5092ZM3.09084 55.0746L3.09084 73.5092H0V55.0746H3.09084ZM3.36484 54.8007H21.7213L21.7213 37.0641H18.4559V36.717H3.36484L3.36484 54.8007ZM3.09084 36.717L3.09084 54.8007H0V36.717H3.09084ZM3.36484 36.443H18.4559V18.359H3.36484L3.36484 36.443ZM3.09084 18.359L3.09084 36.443H0V18.359H3.09084ZM3.36484 18.085H18.4559V0.197266H3.36484L3.36484 18.085ZM3.09084 0.197266L3.09084 18.085H0V0.197266H3.09084ZM3.09084 92.2457V92.3868H0V92.2457H3.09084ZM39.7614 55.475H21.9953V55.0746H39.7614V55.475ZM39.7614 54.8007H21.9953L21.9953 37.0641H39.7614V54.8007ZM40.0354 55.475H58.9862V55.0746H40.0354V55.475ZM40.0354 54.8007H58.9862V37.0641H40.0354V54.8007ZM73.7336 55.475H59.2602V55.0746H76.7513V73.5092H73.7336V55.475ZM76.7513 54.8007H59.2602V37.0641H73.7336V36.717H76.7513V54.8007ZM77.0253 92.3868H92.1895V92.2457H77.0253V92.3868ZM77.0253 91.9717H92.1895V73.7832H77.0253V91.9717ZM76.7513 73.7832V91.9717H73.7336V73.7832H76.7513ZM77.0253 73.5092H92.1895V55.0746H77.0253V73.5092ZM77.0253 54.8007H92.1895V36.717H77.0253V54.8007ZM77.0253 36.443H92.1895V18.359H77.0253L77.0253 36.443ZM76.7513 18.359L76.7513 36.443H73.7336V18.359H76.7513ZM77.0253 18.085H92.1895V0.197266H77.0253V18.085ZM76.7513 0.197266V18.085H73.7336V0.197266H76.7513ZM76.7513 92.2457V92.3868H73.7336V92.2457H76.7513ZM114.059 92.3868H129.101V92.2457H114.059V92.3868ZM114.059 91.9717H129.101V73.9309H132.417V73.7832H114.059V91.9717ZM113.785 73.7832V91.9717H110.645V73.7832H113.785ZM114.059 73.5092H132.417V55.475H129.101V55.0746H114.059V73.5092ZM113.785 55.0746V73.5092H110.645V55.0746H113.785ZM114.059 54.8007H129.101V36.717H114.059V54.8007ZM113.785 36.717V54.8007H110.645V36.717H113.785ZM114.059 36.443H129.101V18.6082H132.417V18.359H129.101V18.6082H114.059L114.059 36.443ZM113.785 18.6082L113.785 36.443H110.645V18.6082H113.785ZM113.785 92.2457V92.3868H110.645V92.2457H113.785ZM150.502 73.9309H132.691V73.7832H150.502V73.9309ZM150.502 73.5092H132.691V55.475H150.502V73.5092ZM150.502 18.6082H132.691V18.359H150.502V18.6082ZM150.502 18.085H132.691V0.197266H150.502V18.085ZM132.417 18.085V0.197266H129.101V18.085H132.417ZM150.776 73.9309H169.681V73.7832H150.776V73.9309ZM150.776 73.5092H169.681V55.475H150.776V73.5092ZM150.776 18.6082H169.681V18.359H150.776V18.6082ZM150.776 18.085H169.681V0.197266H150.776V18.085ZM184.379 73.9309H169.955V73.7832H186.121V91.9717H184.379V73.9309ZM186.121 73.5092H169.955V55.475H184.379V55.0746H186.121V73.5092ZM184.379 18.6082H169.955V18.359H184.379V18.6082ZM184.379 18.6082H186.121V36.443H184.379V18.6082ZM184.379 18.085H169.955V0.197266H184.379V18.085ZM186.395 92.3868H202.835V92.2457H186.395V92.3868ZM186.395 91.9717H202.835V73.7832H186.395V91.9717ZM186.395 73.5092H202.835V55.0746H186.395V73.5092ZM186.395 54.8007H202.835V36.717H186.395V54.8007ZM186.121 36.717V54.8007H184.379V36.717H186.121ZM186.395 36.443H202.835V18.6082H186.395V36.443ZM186.121 92.2457V92.3868H184.379V92.2457H186.121ZM224.207 73.9309H239.747V91.9717H242.565V73.9309H239.747V73.7832H224.207V73.9309ZM224.207 73.5092H239.747V55.0746H224.207V73.5092ZM223.933 55.0746V73.5092H221.291V55.0746H223.933ZM224.207 54.8007H239.747V36.717H224.207V54.8007ZM223.933 36.717V54.8007H221.291V36.717H223.933ZM224.207 36.443H239.747V18.6082H242.565V18.359H239.747V18.6082H224.207V36.443ZM223.933 18.6082V36.443H221.291V18.6082H223.933ZM223.933 73.7832V73.9309H221.291V73.7832H223.933ZM261.092 92.3868H242.839V92.2457H261.092V92.3868ZM261.092 91.9717H242.839V73.9309H261.092V91.9717ZM261.092 18.6082H242.839V18.359H261.092V18.6082ZM261.092 18.085H242.839V0.197266H261.092V18.085ZM242.565 18.085V0.197266H239.747V18.085H242.565ZM242.565 92.3868V92.2457H239.747V92.3868H242.565ZM261.366 92.3868H282.57V92.2457H261.366V92.3868ZM261.366 91.9717H282.57V73.9309H261.366V91.9717ZM261.366 18.6082H282.57V18.359H261.366V18.6082ZM261.366 18.085H282.57V0.197266H261.366V18.085ZM297.914 92.3868H282.844V92.2457H297.914V92.3868ZM297.914 91.9717H282.844V73.9309H297.914V91.9717ZM297.914 18.6082H282.844V18.359H297.914V18.6082ZM297.914 18.085H282.844V0.197266H297.914V18.085ZM298.188 92.3868H313.48V92.2457H298.188V92.3868ZM298.188 91.9717H313.48V73.9309H298.188V91.9717ZM298.188 18.6082H313.48V18.359H298.188V18.6082ZM298.188 18.085H313.48V0.197266H298.188V18.085ZM335.452 92.3868H350.392V92.2457H335.452V92.3868ZM335.452 91.9717H350.392V73.7832H335.452V91.9717ZM335.178 73.7832V91.9717H331.936V73.7832H335.178ZM335.452 73.5092H350.392V55.475H353.417V55.0746H335.452V73.5092ZM335.178 55.0746V73.5092H331.936V55.0746H335.178ZM335.452 54.8007H353.417V37.0641H350.392V36.717H335.452V54.8007ZM335.178 36.717V54.8007H331.936V36.717H335.178ZM335.452 36.443H350.392V18.359H335.452V36.443ZM335.178 18.359V36.443H331.936V18.359H335.178ZM335.452 18.085H350.392V0.197266H335.452V18.085ZM335.178 0.197266V18.085H331.936V0.197266H335.178ZM335.178 92.2457V92.3868H331.936V92.2457H335.178ZM371.848 55.475H353.691V55.0746H371.848V55.475ZM371.848 54.8007H353.691V37.0641H371.848V54.8007ZM372.122 55.475H387.259V73.5092H391.073V55.475H387.259V55.0746H372.122V55.475ZM372.122 54.8007H387.259V37.0641H391.073V36.717H387.259V37.0641H372.122V54.8007ZM405.67 73.9309H391.347V73.7832H405.67V73.9309ZM405.67 73.9309H408.609V91.9717H405.67V73.9309ZM405.67 73.5092H391.347V55.475H405.67V73.5092ZM405.67 37.0641H391.347V36.717H405.67V37.0641ZM405.67 36.443H391.347V18.6082H405.67V36.443ZM405.67 18.6082V18.359H408.609V18.6082H405.67ZM391.073 36.443V18.6082H387.259V36.443H391.073ZM391.073 73.9309V73.7832H387.259V73.9309H391.073ZM408.883 92.3868H424.126V92.2457H408.883V92.3868ZM408.883 91.9717H424.126V73.9309H408.883V91.9717ZM408.883 18.6082H424.126V18.359H408.883V18.6082ZM408.883 18.085H424.126V0.197266H408.883V18.085ZM408.609 0.197266V18.085H405.67V0.197266H408.609ZM408.609 92.2457V92.3868H405.67V92.2457H408.609Z" fill="#E6E0C0"/>
<path fill-rule="evenodd" clip-rule="evenodd" d="M482.801 91.9698H465.769L465.769 73.7822H482.801V91.9698ZM482.801 73.5082H465.769V55.0739H482.801V73.5082ZM482.801 54.7999H465.769V36.7159H482.801V54.7999ZM465.495 54.7999V36.7159H447V54.7999H465.495ZM482.801 36.4419H465.769L465.769 18.358H482.801V36.4419ZM465.495 36.4419L465.495 18.358H447V36.4419H465.495ZM465.769 0V18.084H482.801L482.801 0H465.769ZM465.495 73.5082V55.0739H447V73.5082H465.495ZM483.075 91.9698H500.885V73.7822H483.075V91.9698ZM483.075 73.5082H493.899V62.4336H500.885V55.0739H493.899V62.4336H483.075V73.5082ZM483.075 29.2195H493.899V36.4419H500.885V29.2195H493.899V18.358H483.075V29.2195ZM483.075 18.084H500.885L500.885 0H483.075L483.075 18.084ZM518.969 91.9698H501.159V73.7822H518.969V91.9698ZM518.969 62.4336H501.159V55.0739H518.969V62.4336ZM518.969 54.7999H501.159V36.7159H518.969L518.969 54.7999ZM500.885 54.7999V36.7159H493.899V54.7999H500.885ZM518.969 36.4419H501.159V29.2195H518.969V36.4419ZM518.969 18.084H501.159L501.159 0H518.969V18.084ZM519.243 91.9698H537.053V73.7822H519.243V91.9698ZM519.243 62.4336H526.347V73.5082H537.053V62.4336H526.347V55.0739H519.243V62.4336ZM519.243 54.7999H526.347V36.7159H519.243L519.243 54.7999ZM519.243 36.4419H526.347V29.2195H537.053V18.358H526.347V29.2195H519.243V36.4419ZM519.243 18.084H537.053V0H519.243V18.084ZM555.137 91.9698H537.327V73.7822H555.137V91.9698ZM555.137 73.5082H537.327V55.0739H555.137V73.5082ZM537.327 36.7159L537.327 54.7999H555.137L555.137 36.7159H537.327ZM537.327 18.358V36.4419H555.137V18.358H537.327ZM555.137 18.084H537.327V0H555.137V18.084ZM555.411 91.9698H573.221V73.7822H555.411V91.9698ZM555.411 18.084H573.221V0H555.411V18.084ZM591.305 91.9698H573.495V73.7822H591.305V91.9698ZM591.305 73.5082H573.495V55.0739H587.876V62.554H591.305V73.5082ZM573.221 73.5082V55.0739H566.18V73.5082H573.221ZM587.876 54.7999H573.495L573.495 40.4539H577.015V51.4905H587.876V54.7999ZM591.305 51.4905H587.876V40.4539H577.015V36.7159H591.305V51.4905ZM573.221 54.7999L573.221 40.4539H566.18V54.7999H573.221ZM577.015 29.3903H573.495V18.358H591.305V36.4419H577.015V29.3903ZM573.221 29.3903V18.358H566.18V29.3903H573.221ZM591.305 18.084H573.495V0H591.305V18.084ZM609.664 91.9698H626.607V73.7822H609.664V91.9698ZM609.664 36.4419V18.358H626.607V36.4419H609.664ZM609.664 54.7999V36.7159H626.607V54.7999H609.664ZM609.664 73.5082V55.0739H626.607V73.5082H609.664ZM609.664 18.084V0H626.607V18.084H609.664ZM609.39 0V18.084H591.579V0H609.39ZM609.39 73.7822V91.9698H591.579V73.7822H609.39ZM598.71 73.5082H591.579V62.554H598.71V73.5082ZM598.71 51.4905H591.579V36.7159H598.71V51.4905ZM598.71 36.4419H591.579V18.358H598.71V36.4419ZM626.881 73.5082H645.376V55.0739H626.881V73.5082ZM626.881 54.7999H645.376V36.7159H626.881V54.7999ZM626.881 36.4419H645.376V18.358H626.881V36.4419ZM447 18.084V0H447V18.084H447ZM447 91.9698V73.7822H447V91.9698H447ZM645.376 91.9698V73.7822H645.376V91.9698H645.376ZM645.376 18.084V0H645.376V18.084H645.376Z" fill="#E6E0C0"/>
</svg>
