<svg width="185" height="28" viewBox="0 0 185 28" fill="none" xmlns="http://www.w3.org/2000/svg">
<path fill-rule="evenodd" clip-rule="evenodd" d="M10.5733 16.6939H5.31298V16.5114H10.5733V16.6939ZM10.5733 16.4328H5.31298V11.4178H10.5733V16.4328ZM5.23446 16.4328V11.2506H0V16.4328H5.23446ZM5.23446 11.1721L5.23446 5.98915H0V11.1721H5.23446ZM5.23446 5.91063V0.852539H0V5.91063H5.23446ZM5.23446 21.7941L5.23446 16.5114H0V21.7941H5.23446ZM0 21.8727H5.23446V27.0852H0V21.8727ZM0 27.1637H5.23446V27.272H0V27.1637ZM10.6518 16.6939H15.9141V16.5114H10.6518V16.6939ZM10.6518 16.4328H15.9141V11.4178H10.6518V16.4328ZM21.0831 16.6939H15.9926V16.5114H21.0831V16.6939ZM21.0831 16.4328H15.9926V11.4178H21.0831V16.4328ZM21.1616 27.272H26.4195V27.1637H21.1616V27.272ZM21.1616 27.0852H26.4195V21.8727H21.1616V27.0852ZM21.1616 21.7941H26.4195V16.5114H21.1616V21.7941ZM21.1616 16.4328H26.4195V11.2506H21.1616L21.1616 16.4328ZM21.1616 5.91063V0.852539H26.4195V5.91063H21.1616ZM21.1616 11.1721V5.98915H26.4195V11.1721H21.1616ZM31.7622 27.272H36.9454V27.1637H31.7622V27.272ZM31.7622 27.0852H36.9454V21.8727H31.7622V27.0852ZM31.7622 21.7941H36.9454V16.5114H31.7622V21.7941ZM31.7622 16.4328H36.9454V11.2506H31.7622L31.7622 16.4328ZM31.7622 11.1721H36.9454V6.1287H31.7622V11.1721ZM42.2969 21.983H37.0239V21.8727H42.2969V21.983ZM42.2969 21.7941H37.0239V16.6939H42.2969V21.7941ZM42.2969 6.1287H37.0239V5.98915H42.2969V6.1287ZM42.2969 5.91063H37.0239V0.852539H42.2969V5.91063ZM42.3754 21.983H47.6368V21.8727H42.3754V21.983ZM42.3754 21.7941H47.6368V16.6939H42.3754V21.7941ZM42.3754 6.1287H47.6368V5.98915H42.3754V6.1287ZM42.3754 5.91063H47.6368V0.852539H42.3754V5.91063ZM52.8184 21.983H47.7153V21.8727H52.8184V21.983ZM52.8184 21.7941H47.7153V16.6939H52.8184V21.7941ZM52.8184 6.1287H47.7153V5.98915H52.8184V6.1287ZM52.8184 5.91063H47.7153V0.852539H52.8184V5.91063ZM52.8969 27.272H58.128V27.1637H52.8969V27.272ZM52.8969 27.0852H58.128V21.8727H52.8969V27.0852ZM52.8969 21.7941H58.128V16.5114H52.8969V21.7941ZM52.8969 16.4328V11.2506H58.128V16.4328H52.8969ZM52.8969 11.1721V6.1287H58.128V11.1721H52.8969ZM73.8624 27.272H68.7592V27.1637H73.8624V27.272ZM73.8624 27.0852H68.7592V21.983H73.8624V27.0852ZM68.6807 21.7941V16.5114H63.4171V21.7941H68.6807ZM68.6807 16.4328V11.2506H63.4171V16.4328H68.6807ZM73.8624 6.1287H68.7592V5.98915H73.8624V6.1287ZM73.8624 5.91063H68.7592V0.852539H73.8624V5.91063ZM63.4171 6.1287H68.6807V11.1721H63.4171V6.1287ZM68.6807 21.983V21.8727H63.4171V21.983H68.6807ZM73.9409 27.272H79.2032V27.1637H73.9409V27.272ZM73.9409 27.0852H79.2032V21.983H73.9409V27.0852ZM73.9409 6.1287H79.2032V5.98915H73.9409V6.1287ZM73.9409 5.91063H79.2032V0.852539H73.9409V5.91063ZM84.5118 27.272H79.2817V27.1637H84.5118V27.272ZM84.5118 27.0852H79.2817V21.983H84.5118V27.0852ZM84.5118 6.1287H79.2817V5.98915H84.5118V6.1287ZM84.5118 5.91063H79.2817V0.852539H84.5118V5.91063ZM84.5903 27.272H89.8366V27.1637H84.5903V27.272ZM84.5903 27.0852H89.8366V21.983H84.5903V27.0852ZM84.5903 6.1287H89.8366V5.98915H84.5903V6.1287ZM84.5903 5.91063H89.8366V0.852539H84.5903V5.91063ZM95.142 27.272H100.403V27.1637H95.142V27.272ZM95.142 27.0852H100.403V21.8727H95.142V27.0852ZM95.142 21.7941H100.403V16.5114H95.142V21.7941ZM95.142 16.4328H100.403V11.2506H95.142V16.4328ZM95.142 11.1721H100.403V5.98915H95.142V11.1721ZM95.142 5.91063H100.403V0.852539H95.142V5.91063ZM105.742 16.6939H100.482V16.5114H105.742V16.6939ZM105.742 16.4328H100.482V11.4178H105.742V16.4328ZM105.821 16.6939H110.971V16.5114H105.821V16.6939ZM105.821 16.4328H110.971V11.4178H105.821V16.4328ZM116.252 21.983H111.049V21.8727H116.252V21.983ZM116.252 21.7941H111.049V16.6939H116.252V21.7941ZM116.252 11.4178H111.049V11.2506H116.252V11.4178ZM116.252 11.1721H111.049V6.1287H116.252V11.1721ZM116.331 27.272H121.545V27.1637H116.331V27.272ZM116.331 27.0852H121.545V21.983H116.331V27.0852ZM116.331 6.1287H121.545V5.98915H116.331V6.1287ZM116.331 5.91063H121.545V0.852539H116.331V5.91063Z" fill="black"/>
<path fill-rule="evenodd" clip-rule="evenodd" d="M138.411 27.0847H133.529V21.8721H138.411L138.411 27.0847ZM138.411 21.7936H133.529L133.529 16.5113H138.411V21.7936ZM138.411 16.4328H133.529V11.2501H138.411V16.4328ZM133.45 16.4328V11.2501H128.15V16.4328H133.45ZM138.411 11.1716H133.529L133.529 5.98913H138.411V11.1716ZM133.45 11.1716L133.45 5.98913H128.15V11.1716H133.45ZM133.529 0.727539V5.91061H138.411L138.411 0.727539H133.529ZM133.45 21.7936L133.45 16.5113H128.15V21.7936H133.45ZM138.49 27.0847H143.593L143.593 21.8721H138.49L138.49 27.0847ZM138.49 21.7936H141.59V18.6206H143.593V16.5113H141.59V18.6206H138.49V21.7936ZM138.49 9.10213H141.59V11.1716H143.593V9.10213H141.59V5.98913H138.49V9.10213ZM138.49 5.91061H143.593L143.593 0.727539H138.49L138.49 5.91061ZM148.775 27.0847H143.671L143.671 21.8721H148.775V27.0847ZM148.775 18.6206H143.671V16.5113H148.775V18.6206ZM148.775 16.4328H143.671V11.2501H148.775L148.775 16.4328ZM143.593 16.4328V11.2501H141.59V16.4328H143.593ZM148.775 11.1716H143.671V9.10213H148.775V11.1716ZM148.775 5.91061H143.671L143.671 0.727539H148.775V5.91061ZM148.853 27.0847H153.959V21.8721H148.853V27.0847ZM148.853 18.6206H150.889V21.7936H153.959V18.6206H150.889V16.5113H148.853V18.6206ZM148.853 16.4328H150.889V11.2501H148.853L148.853 16.4328ZM148.853 11.1716H150.889V9.10213H153.959V5.98913H150.889V9.10213H148.853V11.1716ZM148.853 5.91061H153.959V0.727539H148.853V5.91061ZM159.14 27.0847H154.038V21.8721H159.14V27.0847ZM159.14 21.7936H154.038V16.5113H159.14V21.7936ZM154.038 11.2501L154.038 16.4328H159.14L159.14 11.2501H154.038ZM154.038 5.98913V11.1716H159.14V5.98913H154.038ZM159.14 5.91061H154.038V0.727539H159.14V5.91061ZM159.218 27.0847H164.322V21.8721H159.218V27.0847ZM159.218 5.91061H164.322V0.727539H159.218V5.91061ZM169.505 27.0847H164.401V21.8721H169.505V27.0847ZM169.505 21.7936H164.401V16.5113H168.522V18.6546H169.505V21.7936ZM164.322 21.7936V16.5113H162.304V21.7936H164.322ZM168.522 16.4328H164.401V12.3211H165.409V15.484H168.522V16.4328ZM169.505 15.484H168.522V12.3211H165.409V11.2501H169.505V15.484ZM164.322 16.4328V12.3211H162.304V16.4328H164.322ZM165.409 9.15055H164.401V5.98913H169.505V11.1716H165.409V9.15055ZM164.322 9.15055V5.98913H162.304V9.15055H164.322ZM169.505 5.91061H164.401V0.727539H169.505V5.91061ZM174.766 27.0847H179.621V21.8721H174.766V27.0847ZM174.766 11.1716V5.98913H179.621V11.1716H174.766ZM174.766 16.4328V11.2501H179.621V16.4328H174.766ZM174.766 21.7936V16.5113H179.621V21.7936H174.766ZM174.766 5.91061V0.727539H179.621V5.91061H174.766ZM174.688 0.727539V5.91061H169.584V0.727539H174.688ZM174.688 21.8721V27.0847H169.584V21.8721H174.688ZM171.627 21.7936H169.584V18.6546H171.627V21.7936ZM171.627 15.484H169.584V11.2501H171.627V15.484ZM171.627 11.1716H169.584V5.98913H171.627V11.1716ZM179.7 21.7936H185V16.5113H179.7V21.7936ZM179.7 16.4328H185V11.2501H179.7V16.4328ZM179.7 11.1716H185V5.98913H179.7V11.1716ZM128.15 27.0847V21.8721H128.15V27.0847H128.15ZM185 27.0847V21.8721H185V27.0847H185ZM185 5.91061V0.727539H185V5.91061H185Z" fill="black"/>
</svg>
