<svg width="131" height="49" viewBox="0 0 131 49" fill="none" xmlns="http://www.w3.org/2000/svg">
<path fill-rule="evenodd" clip-rule="evenodd" d="M8.40157 11.6466H4.71914L4.71914 8.33509H8.40157V11.6466ZM8.40157 8.28012H4.71914V7.95362H8.40157V8.28012ZM4.66417 8.28012L4.66417 4.65272H1.00049V8.28012H4.66417ZM4.66417 4.59776L4.66418 0.9706H1.00049V4.59776H4.66417ZM4.66418 0.915639V0.558594H1.00049V0.915639H4.66418ZM4.66417 11.9625V8.33509H1.00049V11.9625H4.66417ZM1.00049 12.0175H4.66417L4.66417 15.7151H1.00049V12.0175ZM1.00049 15.77H4.66417L4.66417 19.0507H1.00049V15.77ZM8.45653 11.6466H12.1388V8.33509H8.45653L8.45653 11.6466ZM8.45653 8.28012H12.1388V7.95362H8.45653V8.28012ZM15.7573 11.6466H12.1937V8.33509H15.7573V11.6466ZM15.7573 8.28012H12.1937V7.95362H15.7573V8.28012ZM15.8123 19.0507H19.4926V15.77H15.8123V19.0507ZM15.8123 15.7151H19.4926V12.0175H15.8123V15.7151ZM15.8123 11.9625H19.4926V8.33509H15.8123V11.9625ZM15.8123 8.28012H19.4926V4.65272H15.8123L15.8123 8.28012ZM15.8123 0.915639V0.558594H19.4926V0.915639H15.8123ZM15.8123 4.59776V0.9706H19.4926V4.59776H15.8123ZM23.2321 19.0507H26.8596L26.8596 15.77H23.2321V19.0507ZM23.2321 15.7151H26.8596V12.0175H23.2321V15.7151ZM23.2321 11.9625H26.8596V8.33509H23.2321L23.2321 11.9625ZM23.2321 8.28012H26.8596V4.65272H23.2321V8.28012ZM23.2321 4.59776H26.8596V4.25159H23.2321V4.59776ZM30.6056 15.3487H26.9146V12.0175H30.6056V15.3487ZM30.6056 11.9625H26.9146L26.9146 11.6466H30.6056V11.9625ZM30.6056 4.25159H26.9146V0.9706H30.6056V4.25159ZM30.6056 0.915639H26.9146V0.558594H30.6056V0.915639ZM30.6606 15.3487H34.343V12.0175H30.6606V15.3487ZM30.6606 11.9625H34.343V11.6466H30.6606L30.6606 11.9625ZM30.6606 4.25159H34.343V0.9706H30.6606V4.25159ZM30.6606 0.915639H34.343V0.558594H30.6606V0.915639ZM37.9705 15.3487H34.398V12.0175H37.9705V15.3487ZM37.9705 11.9625H34.398V11.6466H37.9705V11.9625ZM37.9705 4.25159H34.398V0.9706H37.9705V4.25159ZM37.9705 0.915639H34.398V0.558594H37.9705V0.915639ZM38.0254 19.0507H41.6867V15.77H38.0254V19.0507ZM38.0254 15.7151H41.6867V12.0175H38.0254V15.7151ZM38.0254 11.9625H41.6867V8.33509H38.0254V11.9625ZM38.0254 8.28012V4.65272H41.6867V8.28012H38.0254ZM38.0254 4.59776V4.25159H41.6867V4.59776H38.0254ZM52.7 19.0507H49.1276V15.77H52.7V19.0507ZM52.7 15.7151H49.1276V15.3487H52.7V15.7151ZM49.0726 11.9625V8.33509H45.3887V11.9625H49.0726ZM49.0726 8.28012V4.65272H45.3887V8.28012H49.0726ZM52.7 4.25159H49.1276V0.9706H52.7V4.25159ZM52.7 0.915639H49.1276V0.558594H52.7V0.915639ZM45.3887 4.25159H49.0726V4.59776H45.3887V4.25159ZM49.0726 15.3487V12.0175H45.3887V15.3487H49.0726ZM52.755 19.0507H56.4373V15.77H52.755V19.0507ZM52.755 15.7151H56.4373V15.3487H52.755V15.7151ZM52.755 4.25159H56.4373V0.9706H52.755V4.25159ZM52.755 0.915639H56.4373V0.558594H52.755V0.915639ZM60.1536 19.0507H56.4923V15.77H60.1536V19.0507ZM60.1536 15.7151H56.4923V15.3487H60.1536V15.7151ZM60.1536 4.25159H56.4923V0.9706H60.1536V4.25159ZM60.1536 0.915639H56.4923V0.558594H60.1536V0.915639ZM60.2085 19.0507H63.8808V15.77H60.2085V19.0507ZM60.2085 15.7151H63.8808V15.3487H60.2085V15.7151ZM60.2085 4.25159H63.8808V0.9706H60.2085V4.25159ZM60.2085 0.915639H63.8808V0.558594H60.2085V0.915639ZM67.5945 19.0507H71.2768V15.77H67.5945V19.0507ZM67.5945 15.7151H71.2768V12.0175H67.5945V15.7151ZM67.5945 11.9625H71.2768V8.33509H67.5945V11.9625ZM67.5945 8.28012H71.2768V4.65272H67.5945V8.28012ZM67.5945 4.59776H71.2768V0.9706H67.5945V4.59776ZM67.5945 0.915639H71.2768V0.558594H67.5945V0.915639ZM75.0142 11.6466H71.3318V8.33509H75.0142V11.6466ZM75.0142 8.28012H71.3318V7.95362H75.0142V8.28012ZM75.0692 11.6466H78.6728V8.33509H75.0692V11.6466ZM75.0692 8.28012H78.6728V7.95362H75.0692V8.28012ZM82.37 15.3487H78.7278V12.0175H82.37V15.3487ZM82.37 11.9625H78.7278V11.6466H82.37V11.9625ZM82.37 7.95362H78.7278V4.65272H82.37V7.95362ZM82.37 4.59776H78.7278V4.25159H82.37V4.59776ZM82.425 19.0507H86.075V15.77H82.425V19.0507ZM82.425 15.7151H86.075V15.3487H82.425V15.7151ZM82.425 4.25159H86.075V0.9706H82.425V4.25159ZM82.425 0.915639H86.075V0.558594H82.425V0.915639Z" fill="#EEEEEE"/>
<path fill-rule="evenodd" clip-rule="evenodd" d="M97.8781 19.4181H94.4617V15.7699H97.8781V19.4181ZM97.8781 15.7149H94.4617L94.4617 12.0174H97.8781V15.7149ZM97.8781 11.9624H94.4617L94.4617 8.33496H97.8781L97.8781 11.9624ZM94.4067 11.9624V8.33496H90.6968V11.9624H94.4067ZM97.8781 8.28H94.4617V4.6526H97.8781V8.28ZM94.4067 8.28L94.4067 4.6526H90.6968V8.28H94.4067ZM94.4617 0.970215L94.4617 4.59764H97.8781V0.970215H94.4617ZM94.4067 15.7149L94.4067 12.0174H90.6968V15.7149H94.4067ZM97.933 19.4181H101.505V15.7699H97.933V19.4181ZM97.933 15.7149H100.104V13.4935H101.505V12.0174H100.104V13.4935H97.933V15.7149ZM97.933 6.83118H100.104V8.28H101.505V6.83118H100.104V4.6526H97.933V6.83118ZM97.933 4.59764H101.505L101.505 0.970215H97.933V4.59764ZM105.133 19.4181H101.56V15.7699H105.133V19.4181ZM105.133 13.4935H101.56V12.0174H105.133V13.4935ZM105.133 11.9624H101.56V8.33496H105.133V11.9624ZM101.505 11.9624V8.33496H100.104V11.9624H101.505ZM105.133 8.28H101.56V6.83118H105.133V8.28ZM105.133 4.59764H101.56V0.970215H105.133L105.133 4.59764ZM105.188 19.4181H108.76L108.76 15.7699H105.188V19.4181ZM105.188 13.4935H106.613V15.7149H108.76V13.4935H106.613V12.0174H105.188V13.4935ZM105.188 11.9624H106.613V8.33496H105.188V11.9624ZM105.188 8.28H106.613V6.83118H108.76V4.6526H106.613V6.83118H105.188V8.28ZM105.188 4.59764H108.76V0.970215H105.188V4.59764ZM112.388 19.4181H108.815V15.7699H112.388L112.388 19.4181ZM112.388 15.7149H108.815V12.0174H112.388V15.7149ZM108.815 8.33496L108.815 11.9624H112.388V8.33496H108.815ZM108.815 4.6526V8.28H112.388V4.6526H108.815ZM112.388 4.59764H108.815V0.970215H112.388V4.59764ZM112.443 19.4181H116.015L116.015 15.7699H112.443V19.4181ZM112.443 4.59764H116.015V0.970215H112.443V4.59764ZM119.643 19.4181H116.07V15.7699H119.643L119.643 19.4181ZM119.643 15.7149H116.07V12.0174H118.955V13.5177H119.643V15.7149ZM116.015 15.7149V12.0174H114.603V15.7149H116.015ZM118.955 11.9624H116.07L116.07 9.08468H116.776V11.2985H118.955V11.9624ZM119.643 11.2985H118.955V9.08468H116.776V8.33496H119.643V11.2985ZM116.015 11.9624V9.08468H114.603V11.9624H116.015ZM116.776 6.86546H116.07V4.6526H119.643V8.28H116.776V6.86546ZM116.015 6.86546V4.6526H114.603V6.86546H116.015ZM119.643 4.59764H116.07V0.970215H119.643V4.59764ZM123.325 19.4181H126.724V15.7699H123.325V19.4181ZM123.325 8.28V4.6526H126.724V8.28H123.325ZM123.325 11.9624V8.33496H126.724V11.9624H123.325ZM123.325 15.7149V12.0174H126.724V15.7149H123.325ZM123.325 4.59764V0.970215H126.724V4.59764H123.325ZM123.27 0.970215V4.59764H119.698V0.970215H123.27ZM123.27 15.7699V19.4181H119.698V15.7699H123.27ZM121.128 15.7149H119.698V13.5177H121.128V15.7149ZM121.128 11.2985H119.698V8.33496H121.128V11.2985ZM121.128 8.28H119.698V4.6526H121.128V8.28ZM126.779 15.7149H130.489V12.0174H126.779V15.7149ZM126.779 11.9624H130.489V8.33496H126.779V11.9624ZM126.779 8.28H130.489V4.6526H126.779V8.28ZM90.6968 4.59764V0.970215H90.6968V4.59764H90.6968ZM90.6968 19.4181V15.7699H90.6968V19.4181H90.6968ZM130.489 19.4181V15.7699H130.489V19.4181H130.489ZM130.489 4.59764V0.970215H130.489V4.59764H130.489Z" fill="#EEEEEE"/>
<path fill-rule="evenodd" clip-rule="evenodd" d="M8.40134 47.4545H4.71892L4.71892 44.1584H8.40134L8.40134 47.4545ZM8.40134 44.1035H4.71892V43.7525H8.40134V44.1035ZM4.66396 44.1035V40.4321H0.993164V44.1035H4.66396ZM8.40134 40.0504H4.71892V36.7497H8.40134V40.0504ZM4.66396 40.3771L4.66396 36.7497H0.993164V40.3771H4.66396ZM8.40134 36.6947H4.71892V36.3574H8.40134V36.6947ZM4.66396 36.6947L4.66396 33.0673H0.993164V36.6947H4.66396ZM8.40134 32.6554H4.71892L4.71892 29.3853H8.40134V32.6554ZM4.66396 33.0124V29.3853H0.993164V33.0124H4.66396ZM8.40134 29.3303H4.71892V28.9624H8.40134V29.3303ZM4.66396 29.3303L4.66396 28.9624H0.993164V29.3303H4.66396ZM4.66396 47.4545L4.66396 44.1584H0.993164V47.4545H4.66396ZM8.4563 47.4545H12.1386V44.1584H8.4563V47.4545ZM8.4563 44.1035H12.1386V43.7525H8.4563V44.1035ZM8.4563 40.0504H12.1386V36.7497H8.4563V40.0504ZM8.4563 36.6947H12.1386V36.3574H8.4563V36.6947ZM8.4563 32.6554H12.1386V29.3853H8.4563L8.4563 32.6554ZM8.4563 29.3303H12.1386L12.1386 28.9624H8.4563V29.3303ZM15.7571 47.4545H12.1935V44.1584H15.7571V47.4545ZM15.7571 44.1035H12.1935L12.1935 43.7525H15.7571V44.1035ZM15.7571 40.0504H12.1935V36.7497H15.7571V40.0504ZM15.7571 36.6947H12.1935V36.3574H15.7571V36.6947ZM15.7571 32.6554H12.1935V29.3853H15.7571V32.6554ZM15.7571 29.3303H12.1935V28.9624H15.7571L15.7571 29.3303ZM15.8121 43.7525H19.4853V40.4321H15.8121V43.7525ZM15.8121 40.3771H19.4853V40.0504H15.8121V40.3771ZM15.8121 36.3574H19.4853V33.0673H15.8121V36.3574ZM15.8121 33.0124H19.4853V32.6554H15.8121V33.0124ZM23.2319 47.4545H26.8594V44.1584H23.2319V47.4545ZM23.2319 44.1035H26.8594V40.4321H23.2319V44.1035ZM23.2319 40.3771H26.8594V36.7497H23.2319V40.3771ZM23.2319 36.6947H26.8594V33.0673H23.2319V36.6947ZM23.2319 33.0124H26.8594V29.3853H23.2319V33.0124ZM23.2319 29.3303H26.8594V28.9624H23.2319V29.3303ZM30.6054 47.4545H26.9144V44.1584H30.6054L30.6054 47.4545ZM30.6054 44.1035H26.9144V43.7525H30.6054V44.1035ZM30.6604 47.4545H34.3428V44.1584H30.6604V47.4545ZM30.6604 44.1035H34.3428V43.7525H30.6604V44.1035ZM38.0803 47.4545H34.3978V44.1584H38.0803V47.4545ZM38.0803 44.1035H34.3978V43.7525H38.0803V44.1035ZM38.1352 47.4545H41.6794V44.1584H38.1352V47.4545ZM38.1352 44.1035H41.6794V43.7525H38.1352V44.1035ZM52.6998 47.4545H49.1274V44.1584H52.6998V47.4545ZM52.6998 44.1035H49.1274V43.7525H52.6998V44.1035ZM49.0724 40.3771V36.7497H45.3814V40.3771H49.0724ZM49.0724 36.6947V33.0673H45.3814V36.6947H49.0724ZM52.6998 32.6554H49.1274V29.3853H52.6998V32.6554ZM52.6998 29.3303H49.1274V28.9624H52.6998L52.6998 29.3303ZM45.3814 32.6554H49.0724V33.0124H45.3814V32.6554ZM49.0724 43.7525V40.4321H45.3814V43.7525H49.0724ZM52.7548 47.4545H56.4371V44.1584H52.7548V47.4545ZM52.7548 44.1035H56.4371V43.7525H52.7548V44.1035ZM52.7548 32.6554H56.4371V29.3853H52.7548V32.6554ZM52.7548 29.3303H56.4371L56.4371 28.9624H52.7548V29.3303ZM60.1534 47.4545H56.4921V44.1584H60.1534V47.4545ZM60.1534 44.1035H56.4921V43.7525H60.1534V44.1035ZM60.1534 32.6554H56.4921V29.3853H60.1534V32.6554ZM60.1534 29.3303H56.4921V28.9624H60.1534L60.1534 29.3303ZM60.2084 43.7525H63.8735V40.4321H60.2084V43.7525ZM60.2084 40.3771H63.8735V36.7497H60.2084V40.3771ZM60.2084 36.6947H63.8735V33.0673H60.2084V36.6947ZM60.2084 33.0124H63.8735V32.6554H60.2084V33.0124ZM67.5942 43.7525H71.2766V40.4321H67.5942V43.7525ZM67.5942 40.3771H71.2766V36.7497H67.5942V40.3771ZM67.5942 36.6947H71.2766V33.0673H67.5942V36.6947ZM67.5942 33.0124H71.2766V32.6554H67.5942V33.0124ZM75.014 47.4545H71.3316V44.1584H75.014V47.4545ZM75.014 44.1035H71.3316V43.7525H75.014V44.1035ZM75.014 32.6554H71.3316V29.3853H75.014V32.6554ZM75.014 29.3303H71.3316V28.9624H75.014V29.3303ZM75.069 47.4545H78.7513V44.1584H75.069V47.4545ZM75.069 44.1035H78.7513V43.7525H75.069V44.1035ZM75.069 32.6554H78.7513V29.3853H75.069V32.6554ZM75.069 29.3303H78.7513V28.9624H75.069V29.3303ZM82.4886 47.4545H78.8063V44.1584H82.4886V47.4545ZM82.4886 44.1035H78.8063V43.7525H82.4886V44.1035ZM82.4886 32.6554H78.8063V29.3853H82.4886V32.6554ZM82.4886 29.3303H78.8063V28.9624H82.4886V29.3303ZM82.5436 47.4545H86.0676V44.1584H82.5436V47.4545ZM82.5436 44.1035H86.0676V43.7525H82.5436V44.1035ZM82.5436 32.6554H86.0676V29.3853H82.5436V32.6554ZM82.5436 29.3303H86.0676V28.9624H82.5436V29.3303ZM89.7984 47.4545H93.4717V44.1584H89.7984V47.4545ZM89.7984 44.1035H93.4717V40.4321H89.7984V44.1035ZM89.7984 40.3771H93.4717V40.0504H93.4809V36.7497H89.7984V40.3771ZM89.7984 36.6947H93.4809V36.3574H93.4717V33.0673H89.7984V36.6947ZM89.7984 33.0124H93.4717V29.3853H89.7984V33.0124ZM89.7984 29.3303H93.4717V28.9624H89.7984V29.3303ZM97.2182 40.0504H93.5358V36.7497H97.2182V40.0504ZM97.2182 36.6947H93.5358V36.3574H97.2182V36.6947ZM97.2731 40.0504H100.846V36.7497H97.2731V40.0504ZM97.2731 36.6947H100.846V36.3574H97.2731V36.6947ZM104.539 43.7525H100.901V40.4321H104.539V43.7525ZM104.539 40.3771H100.901V40.0504H104.539V40.3771ZM104.539 36.3574H100.901V33.0673H104.539V36.3574ZM104.539 33.0124H100.901V32.6554H104.539V33.0124ZM104.594 47.4545H108.262V44.1584H104.594V47.4545ZM104.594 44.1035H108.262V43.7525H104.594V44.1035ZM104.594 32.6554H108.262V29.3853H104.594V32.6554ZM104.594 29.3303H108.262V28.9624H104.594V29.3303ZM112.003 47.4545H115.639V44.1584H112.003V47.4545ZM112.003 44.1035H115.639V43.7525H112.003V44.1035ZM112.003 36.3574H115.639V33.0673H112.003V36.3574ZM112.003 33.0124H115.639V32.6554H112.003V33.0124ZM119.203 47.4545H115.694V44.1584H119.203V47.4545ZM119.203 44.1035H115.694V43.7525H119.203V44.1035ZM115.694 36.7497V40.0504H119.203V36.7497H115.694ZM115.694 36.3574V36.6947H119.203V36.3574H115.694ZM119.203 32.6554H115.694V29.3853H119.203V32.6554ZM115.694 28.9624V29.3303H119.203V28.9624H115.694ZM119.258 47.4545H122.94V44.1584H119.258V47.4545ZM119.258 44.1035H122.94V43.7525H119.258V44.1035ZM119.258 40.0504H122.94V36.7497H119.258V40.0504ZM119.258 36.6947H122.94V36.3574H119.258V36.6947ZM119.258 32.6554H122.94V29.3853H119.258V32.6554ZM119.258 29.3303H122.94V28.9624H119.258V29.3303ZM126.723 47.4545H122.995V44.1584H126.723V47.4545ZM126.723 44.1035H122.995V43.7525H126.723V44.1035ZM126.723 40.0504H122.995V36.7497H126.723V40.0504ZM126.723 36.6947H122.995V36.3574H126.723V36.6947ZM126.723 32.6554H122.995V29.3853H126.723V32.6554ZM126.723 29.3303H122.995V28.9624H126.723V29.3303ZM126.778 43.7525H130.456V40.4321H126.778V43.7525ZM126.778 40.3771H130.456V40.0504H126.778V40.3771ZM126.778 32.6554H130.456V29.3853H126.778V32.6554ZM126.778 29.3303H130.456V28.9624H126.778V29.3303Z" fill="#EEEEEE"/>
</svg>
