<svg width="143" height="51" viewBox="0 0 143 51" fill="none" xmlns="http://www.w3.org/2000/svg">
<path d="M58.5943 38.1534H58.5311C58.5595 38.1534 58.5785 38.1851 58.607 38.1882H58.626L58.5943 38.1566V38.1534ZM58.607 38.1882C58.3129 38.1914 57.573 38.3463 56.7919 38.3463C54.3254 38.3463 53.4717 37.208 53.4717 35.7217V25.8211H58.4995C58.7841 25.8211 59.0054 25.5681 59.0054 25.2203V19.8447C59.0054 19.5601 58.7524 19.3071 58.4995 19.3071H53.4717V12.635C53.4717 12.382 53.3136 12.2239 53.029 12.2239H46.1988C45.9142 12.2239 45.7561 12.382 45.7561 12.635V19.4968C45.7561 19.4968 42.3093 20.3506 42.088 20.3822C41.835 20.4455 41.6769 20.6668 41.6769 20.9198V25.2203C41.6769 25.5681 41.9299 25.8211 42.2145 25.8211H45.7244V36.1929C45.7244 43.9085 51.1001 44.699 54.7681 44.699C56.4441 44.699 58.4678 44.1615 58.7841 44.0034C58.9738 43.9401 59.0686 43.7188 59.0686 43.4974V38.7542C59.073 38.6197 59.0287 38.4881 58.9439 38.3836C58.8591 38.279 58.7395 38.2086 58.607 38.1851V38.1882ZM133.537 31.2284C133.537 25.5049 131.229 24.746 128.794 24.999C126.896 25.1254 125.379 26.0741 125.379 26.0741V37.2048C125.379 37.2048 126.928 38.2799 129.236 38.3432C132.493 38.438 133.537 37.268 133.537 31.2284ZM141.221 30.7224C141.221 41.5685 137.711 44.6674 131.576 44.6674C126.39 44.6674 123.608 42.0429 123.608 42.0429C123.608 42.0429 123.481 43.4974 123.323 43.6872C123.228 43.8769 123.07 43.9401 122.881 43.9401H118.201C117.884 43.9401 117.6 43.6872 117.6 43.4026L117.663 8.27127C117.663 7.98668 117.916 7.73371 118.201 7.73371H124.936C125.22 7.73371 125.473 7.98668 125.473 8.27127V20.1925C125.473 20.1925 128.066 18.5166 131.861 18.5166L131.829 18.4533C135.624 18.4533 141.221 19.8763 141.221 30.7224ZM113.647 19.3071H107.007C106.659 19.3071 106.469 19.5601 106.469 19.9079V37.1099C106.469 37.1099 104.73 38.3432 102.358 38.3432C99.9866 38.3432 99.291 37.268 99.291 34.8964V19.8763C99.291 19.5917 99.038 19.3387 98.7534 19.3387H91.9865C91.7019 19.3387 91.4489 19.5917 91.4489 19.8763V36.0348C91.4489 42.9915 95.3383 44.7307 100.682 44.7307C105.078 44.7307 108.651 42.2958 108.651 42.2958C108.651 42.2958 108.809 43.5291 108.904 43.7188C108.967 43.8769 109.188 44.0034 109.41 44.0034H113.647C113.995 44.0034 114.185 43.7504 114.185 43.4658L114.248 19.8447C114.248 19.5601 113.995 19.3071 113.647 19.3071ZM38.7045 19.2755H31.9692C31.6846 19.2755 31.4316 19.5601 31.4316 19.9079V43.118C31.4316 43.7504 31.8427 43.9718 32.3802 43.9718H38.4515C39.084 43.9718 39.2421 43.6872 39.2421 43.118V19.8131C39.2421 19.5285 38.9891 19.2755 38.7045 19.2755ZM35.3843 8.58748C32.9494 8.58748 31.0205 10.5164 31.0205 12.9512C31.0205 15.3861 32.9494 17.315 35.3843 17.315C37.7559 17.315 39.6848 15.3861 39.6848 12.9512C39.6848 10.5164 37.7559 8.58748 35.3843 8.58748ZM87.5278 7.79695H80.8557C80.5712 7.79695 80.3182 8.04992 80.3182 8.33451V21.2676H69.8515V8.33451C69.8515 8.04992 69.5985 7.79695 69.314 7.79695H62.5786C62.294 7.79695 62.0411 8.04992 62.0411 8.33451V43.4658C62.0411 43.7504 62.3256 44.0034 62.5786 44.0034H69.314C69.5985 44.0034 69.8515 43.7504 69.8515 43.4658V28.4457H80.3182L80.2549 43.4658C80.2549 43.7504 80.5079 44.0034 80.7925 44.0034H87.5278C87.8124 44.0034 88.0654 43.7504 88.0654 43.4658V8.33451C88.0654 8.04992 87.8124 7.79695 87.5278 7.79695ZM27.8584 23.3546V41.5053C27.8584 41.6318 27.8268 41.8531 27.6687 41.9164C27.6687 41.9164 23.716 44.7307 17.202 44.7307C9.32829 44.7307 0 42.2642 0 26.0108C0 9.75747 8.1583 6.40561 16.1269 6.43723C23.0203 6.43723 25.803 7.98668 26.2457 8.27127C26.3722 8.42938 26.4354 8.55586 26.4354 8.71397L25.1073 14.3426C25.1073 14.6272 24.8227 14.975 24.4749 14.8801C23.3365 14.5323 21.629 13.8366 17.6131 13.8366C12.9647 13.8366 7.96858 15.1647 7.96858 25.6314C7.96858 36.098 12.7118 37.3313 16.1269 37.3313C19.036 37.3313 20.0795 36.9834 20.0795 36.9834V29.7105H15.4312C15.0834 29.7105 14.8304 29.4576 14.8304 29.173V23.3546C14.8304 23.0701 15.0834 22.8171 15.4312 22.8171H27.2576C27.6054 22.8171 27.8584 23.0701 27.8584 23.3546Z" fill="#24292E"/>
</svg>
