<svg width="271" height="59" viewBox="0 0 271 59" fill="none" xmlns="http://www.w3.org/2000/svg">
<g clip-path="url(#clip0_2055_1822)">
<path d="M96.2788 33.9864L94.6693 38.5466H94.5352C94.2669 37.5184 93.7751 35.9536 92.9704 34.0758L84.3416 12.3921H75.8917V46.9519H81.4802V25.6259C81.4802 24.2846 81.4802 22.7645 81.4355 20.8867C81.3908 19.9479 81.3014 19.2325 81.2567 18.696H81.3908C81.6591 20.0373 81.972 21.0209 82.1956 21.6468L92.568 46.8624H96.5023L106.785 21.4233C107.009 20.842 107.232 19.6796 107.456 18.696H107.59C107.456 21.2444 107.367 23.5246 107.322 24.9105V46.8177H113.268V12.3027H105.131L96.2788 33.9864ZM118.901 22.0492H124.713V46.8177H118.901V22.0492ZM121.852 11.5874C120.869 11.5874 120.064 11.945 119.393 12.5709C118.723 13.1969 118.365 14.0016 118.365 14.9852C118.365 15.9241 118.723 16.7288 119.393 17.3548C120.064 17.9807 120.869 18.2936 121.852 18.2936C122.836 18.2936 123.685 17.936 124.311 17.3548C124.982 16.7288 125.339 15.9241 125.339 14.9852C125.339 14.0463 124.982 13.2416 124.311 12.5709C123.73 11.945 122.88 11.5874 121.852 11.5874ZM145.324 21.8256C144.251 21.6021 143.133 21.468 142.06 21.468C139.423 21.468 137.008 22.0492 134.996 23.2116C132.985 24.374 131.375 25.9835 130.347 27.9954C129.274 30.052 128.737 32.4216 128.737 35.1488C128.737 37.5184 129.274 39.6197 130.302 41.5421C131.33 43.4199 132.761 44.94 134.683 45.9683C136.517 46.9966 138.663 47.5331 141.077 47.5331C143.849 47.5331 146.218 46.9519 148.096 45.8789L148.141 45.8342V40.4691L147.917 40.648C147.068 41.2739 146.084 41.8104 145.101 42.1233C144.072 42.481 143.133 42.6598 142.329 42.6598C140.004 42.6598 138.171 41.9892 136.874 40.5138C135.533 39.0832 134.862 37.116 134.862 34.657C134.862 32.1086 135.533 30.0967 136.919 28.6213C138.305 27.146 140.138 26.3859 142.373 26.3859C144.251 26.3859 146.174 27.0118 147.917 28.2637L148.141 28.4425V22.7645L148.096 22.7198C147.336 22.4068 146.487 22.0492 145.324 21.8256ZM164.504 21.6468C163.073 21.6468 161.732 22.0939 160.57 23.0328C159.586 23.8375 158.916 24.9999 158.334 26.3859H158.29V22.0492H152.478V46.8177H158.29V34.1652C158.29 32.0192 158.737 30.2308 159.72 28.9343C160.704 27.593 161.956 26.9224 163.476 26.9224C164.012 26.9224 164.549 27.0565 165.219 27.146C165.845 27.3248 166.292 27.5036 166.605 27.7272L166.829 27.906V22.0939L166.695 22.0492C166.292 21.7809 165.488 21.6468 164.504 21.6468ZM180.331 21.5127C176.262 21.5127 172.999 22.7198 170.719 25.0894C168.394 27.4589 167.276 30.7226 167.276 34.8358C167.276 38.6808 168.438 41.8104 170.674 44.0905C172.909 46.326 175.95 47.4884 179.75 47.4884C183.729 47.4884 186.903 46.2812 189.183 43.867C191.508 41.4527 192.626 38.2337 192.626 34.2546C192.626 30.3203 191.553 27.1907 189.362 24.9105C187.261 22.6304 184.176 21.5127 180.331 21.5127ZM184.981 40.5585C183.908 41.9445 182.209 42.6151 180.107 42.6151C178.006 42.6151 176.307 41.9445 175.1 40.4691C173.893 39.0832 173.312 37.0713 173.312 34.5229C173.312 31.8851 173.938 29.8732 175.1 28.4425C176.307 27.0118 177.961 26.2965 180.063 26.2965C182.119 26.2965 183.729 26.9671 184.891 28.3531C186.054 29.7391 186.68 31.7509 186.68 34.3887C186.59 37.0713 186.098 39.1726 184.981 40.5585ZM205.591 32.3322C203.758 31.5721 202.596 30.9909 202.059 30.4991C201.612 30.052 201.389 29.4261 201.389 28.6213C201.389 27.9507 201.657 27.2801 202.328 26.833C202.998 26.3859 203.758 26.1624 204.876 26.1624C205.86 26.1624 206.888 26.3412 207.871 26.6094C208.855 26.8777 209.749 27.2801 210.465 27.8166L210.688 27.9954V22.541L210.554 22.4963C209.883 22.228 208.989 21.9598 207.916 21.7362C206.843 21.5574 205.86 21.468 205.055 21.468C202.283 21.468 200.003 22.1386 198.214 23.614C196.426 24.9999 195.577 26.8777 195.577 29.0684C195.577 30.2308 195.755 31.2591 196.158 32.1086C196.56 32.9581 197.141 33.7628 197.946 34.4335C198.751 35.0594 199.913 35.7747 201.523 36.4453C202.864 37.0266 203.892 37.4736 204.518 37.8313C205.144 38.189 205.547 38.5914 205.86 38.9043C206.083 39.262 206.217 39.7091 206.217 40.2903C206.217 41.9445 204.965 42.7493 202.417 42.7493C201.433 42.7493 200.405 42.5704 199.198 42.168C197.991 41.7657 196.873 41.1845 195.934 40.5138L195.711 40.335V46.013L195.845 46.0577C196.694 46.4601 197.723 46.7283 198.974 47.0413C200.226 47.2648 201.344 47.4437 202.328 47.4437C205.323 47.4437 207.782 46.773 209.526 45.2976C211.314 43.867 212.253 42.0339 212.253 39.6644C212.253 38.0101 211.806 36.5348 210.822 35.417C209.526 34.344 207.916 33.2263 205.591 32.3322ZM227.588 21.5127C223.519 21.5127 220.256 22.7198 217.976 25.0894C215.695 27.4589 214.533 30.7226 214.533 34.8358C214.533 38.6808 215.695 41.8104 217.931 44.0905C220.166 46.326 223.207 47.4884 227.007 47.4884C230.986 47.4884 234.16 46.2812 236.44 43.867C238.765 41.4527 239.883 38.2337 239.883 34.2546C239.883 30.3203 238.81 27.1907 236.619 24.9105C234.518 22.6304 231.433 21.5127 227.588 21.5127ZM232.193 40.5585C231.12 41.9445 229.421 42.6151 227.32 42.6151C225.174 42.6151 223.519 41.9445 222.312 40.4691C221.105 39.0832 220.524 37.0713 220.524 34.5229C220.524 31.8851 221.15 29.8732 222.312 28.4425C223.519 27.0118 225.174 26.2965 227.275 26.2965C229.287 26.2965 230.941 26.9671 232.104 28.3531C233.266 29.7391 233.892 31.7509 233.892 34.3887C233.892 37.0713 233.311 39.1726 232.193 40.5585ZM270.955 26.833V22.0492H265.098V14.717L264.92 14.7617L259.376 16.4159L259.242 16.4606V22.0492H250.479V18.9196C250.479 17.4889 250.836 16.3712 251.462 15.6558C252.088 14.9405 253.027 14.5828 254.19 14.5828C254.994 14.5828 255.844 14.7617 256.783 15.164L257.006 15.2982V10.2461L256.872 10.2014C256.067 9.93314 254.994 9.7543 253.608 9.7543C251.865 9.7543 250.345 10.1567 248.959 10.8273C247.573 11.5874 246.544 12.6157 245.784 14.0016C245.024 15.3429 244.622 16.863 244.622 18.6066V22.0492H240.553V26.7883H244.622V46.8177H250.479V26.833H259.242V39.5749C259.242 44.8059 261.701 47.4437 266.619 47.4437C267.423 47.4437 268.273 47.3095 269.078 47.1754C269.927 46.9966 270.553 46.773 270.911 46.5942L270.955 46.5495V41.7657L270.732 41.9445C270.374 42.168 270.061 42.3469 269.525 42.481C269.078 42.6151 268.675 42.6598 268.362 42.6598C267.2 42.6598 266.395 42.3916 265.814 41.721C265.277 41.095 265.009 40.0667 265.009 38.5466V26.833H270.955Z" fill="#2B2B2B"/>
<path d="M0.959991 0.767883H28.3664V28.1743H0.959991V0.767883Z" fill="#2B2B2B"/>
<path d="M31.2278 0.767853H58.6342V28.1742H31.2278V0.767853Z" fill="#2B2B2B"/>
<path d="M0.960083 31.0356H28.3665V58.442H0.960083V31.0356Z" fill="#2B2B2B"/>
<path d="M31.2278 31.0356H58.6342V58.442H31.2278V31.0356Z" fill="#2B2B2B"/>
</g>
<defs>
<clipPath id="clip0_2055_1822">
<rect width="270.04" height="57.6741" fill="white" transform="translate(0.959991 0.767883)"/>
</clipPath>
</defs>
</svg>
