<svg width="262" height="63" viewBox="0 0 262 63" fill="none" xmlns="http://www.w3.org/2000/svg">
<path d="M86.3114 54.1861V21.3115H91.2604L91.7317 23.9651H91.9674C93.3814 22.1475 95.7843 20.8457 99.1299 20.8457C105.253 20.8457 110.156 25.7827 110.156 33.0905C110.156 40.3983 105.257 45.3353 99.1299 45.3353C95.8306 45.3353 93.5244 43.9835 92.2998 42.4488H92.0642V54.182H86.3156L86.3114 54.1861ZM104.403 33.0946C104.403 28.8106 101.621 26.1113 98.2293 26.1113C94.8374 26.1113 92.0557 28.8106 92.0557 33.0946C92.0557 37.3787 94.8374 40.078 98.2293 40.078C101.621 40.078 104.403 37.3787 104.403 33.0946Z" fill="#242424"/>
<path d="M113.073 33.095C113.073 25.9702 118.253 20.8502 125.18 20.8502C132.107 20.8502 137.287 25.9702 137.287 33.095C137.287 40.2198 132.107 45.3398 125.18 45.3398C118.253 45.3398 113.073 40.1699 113.073 33.095ZM131.492 33.095C131.492 28.9025 128.664 26.1116 125.18 26.1116C121.696 26.1116 118.821 28.9066 118.821 33.095C118.821 37.2833 121.696 40.0326 125.18 40.0326C128.664 40.0326 131.492 37.2875 131.492 33.095Z" fill="#242424"/>
<path d="M141.454 44.8739V12.2821H147.202V44.8781H141.454V44.8739Z" fill="#242424"/>
<path d="M168.543 21.3116H174.666L164.301 49.948C163.266 52.7888 161.852 54.1863 158.127 54.1863H152.568V48.9248H157.282C158.132 48.9248 158.599 48.5048 158.885 47.806L159.449 46.2712L149.744 21.3116H155.868L162.041 37.6575H162.984L168.543 21.3116Z" fill="#242424"/>
<path d="M175.761 46.0382H181.603C181.838 47.5729 183.391 49.6692 187.069 49.6692C190.507 49.6692 192.771 47.5272 192.771 44.2664V40.9598H192.536C191.265 42.3115 188.908 43.5218 185.891 43.5218C179.768 43.5218 175.054 38.8635 175.054 32.1588C175.054 25.4541 179.768 20.8457 185.891 20.8457C189.047 20.8457 191.357 22.1018 192.818 23.8736H193.053L193.525 21.3115H198.52V44.2664C198.52 50.5052 194.278 54.652 187.069 54.652C179.014 54.652 175.905 49.4363 175.761 46.0382ZM192.771 32.163C192.771 28.4862 190.133 25.9241 186.787 25.9241C183.442 25.9241 180.849 28.4862 180.849 32.163C180.849 35.8397 183.488 38.4476 186.787 38.4476C190.086 38.4476 192.771 35.8855 192.771 32.163Z" fill="#242424"/>
<path d="M202.517 33.095C202.517 25.9702 207.697 20.8502 214.624 20.8502C221.551 20.8502 226.731 25.9702 226.731 33.095C226.731 40.2198 221.551 45.3398 214.624 45.3398C207.697 45.3398 202.517 40.1699 202.517 33.095ZM220.936 33.095C220.936 28.9025 218.108 26.1116 214.624 26.1116C211.139 26.1116 208.265 28.9066 208.265 33.095C208.265 37.2833 211.139 40.0326 214.624 40.0326C218.108 40.0326 220.936 37.2875 220.936 33.095Z" fill="#242424"/>
<path d="M230.732 44.8736V21.3115H235.677L236.148 23.545H236.384C237.326 22.4761 239.683 20.8457 243.26 20.8457C248.727 20.8457 252.682 24.7554 252.682 30.7155V44.8694H246.934V31.4601C246.934 28.4321 244.767 26.2444 241.8 26.2444C238.833 26.2444 236.476 28.5278 236.476 31.4601V44.8694H230.728L230.732 44.8736Z" fill="#242424"/>
<path d="M52.8568 42.1251L66.9883 34.0603C67.7373 33.6319 68.2003 32.8375 68.2003 31.9849V15.8553C68.2003 15.0027 67.7373 14.2083 66.9883 13.7799L52.8568 5.7151C52.1077 5.2867 51.1777 5.29086 50.4328 5.7151L36.3014 13.7799C35.5523 14.2083 35.0894 15.0027 35.0894 15.8553V44.6789L25.1789 50.3313L15.2683 44.6789V33.3699L25.1789 27.7175L31.7143 31.4483V23.8619L26.3908 20.8215C26.0247 20.6135 25.6039 20.5012 25.1789 20.5012C24.7538 20.5012 24.333 20.6135 23.9669 20.8215L9.83542 28.8862C9.08634 29.3146 8.62343 30.109 8.62343 30.9617V47.0912C8.62343 47.9439 9.08634 48.7383 9.83542 49.1667L23.9669 57.2314C24.7159 57.6557 25.6418 57.6557 26.3908 57.2314L40.5223 49.1667C41.2714 48.7383 41.7343 47.9439 41.7343 47.0912V18.2635L41.911 18.1637L51.6406 12.6111L61.5512 18.2635V29.5725L51.6406 35.2249L45.1136 31.5024V39.0888L50.4286 42.1209C51.1777 42.5452 52.1077 42.5452 52.8526 42.1209L52.8568 42.1251Z" fill="#242424"/>
</svg>
