<svg width="263" height="58" viewBox="0 0 263 58" fill="none" xmlns="http://www.w3.org/2000/svg">
<path d="M83.84 18.7519H93.44L98.112 37.0559L103.232 18.7519H111.04L116.16 37.0559L120.768 18.7519H130.368L120.768 48.3199H112.32L106.944 29.0559L101.824 48.2559H93.248L83.84 18.7519Z" fill="#2B2B2B"/>
<path d="M147.84 40.9599C143.552 40.9599 140.032 37.6319 140.032 33.4719C140.032 29.3119 143.488 25.9839 147.84 25.9839C152.128 25.9839 155.648 29.3119 155.648 33.4719C155.648 37.6319 152.128 40.9599 147.84 40.9599ZM155.648 18.6879V21.8879C154.048 19.1999 151.424 17.7279 147.2 17.7279C137.92 17.7279 130.816 24.6399 130.816 33.4719C130.816 42.3679 137.664 49.5359 146.88 49.5359C151.296 49.5359 154.048 47.9999 155.648 45.2479V48.2559H164.736V18.6879H155.648Z" fill="#2B2B2B"/>
<path d="M169.024 18.6879H191.872V25.6639L179.968 41.5999H191.872V48.2559H169.024V42.2399L182.08 25.3439H169.024V18.6879Z" fill="#2B2B2B"/>
<path d="M196.032 48.2559H205.312V18.6879H196.032V48.2559Z" fill="#2B2B2B"/>
<path d="M220.48 21.6959V18.6879H211.904V48.2559H221.184V31.6159C221.184 26.1119 228.288 26.6239 228.288 26.6239V17.7279C223.808 17.7279 221.504 20.1599 220.48 21.6959Z" fill="#2B2B2B"/>
<path d="M229.44 18.6879H240.512L245.504 26.4959L250.496 18.6879H261.568L250.944 32.5119L262.72 47.8079V48.2559H251.648L245.504 39.2319L239.36 48.2559H228.288V47.8079L239.872 32.5119L229.44 18.6879Z" fill="#2B2B2B"/>
<path d="M204.608 12.1599C204.608 10.0479 202.816 8.31992 200.64 8.31992C198.464 8.31992 196.672 10.0479 196.672 12.1599C196.672 14.2719 198.464 15.9999 200.64 15.9999C202.816 15.9999 204.608 14.2719 204.608 12.1599Z" fill="#2B2B2B"/>
<path d="M2.75201 57.0879H65.6V49.9839H2.75201V57.0879Z" fill="#2B2B2B"/>
<path d="M15.488 21.8879L1.52588e-05 11.5199L2.88002 42.3679L15.488 21.8879Z" fill="#2B2B2B"/>
<path d="M22.144 46.2079H65.664L68.8 12.2879L22.144 46.2079Z" fill="#2B2B2B"/>
<path d="M49.024 21.2479L14.912 45.9519H5.56801L22.848 17.7919L33.92 -7.62939e-05L49.024 21.2479Z" fill="#2B2B2B"/>
</svg>
